<svg width="517" height="225" viewBox="0 0 517 225" fill="none" xmlns="http://www.w3.org/2000/svg">
<g clip-path="url(#clip0)">
<path d="M372.825 176.256V213.705L377.883 214.102V223.573H352.683V214.394C357.265 213.245 357.265 213.245 357.265 208.051C357.265 202.051 357.265 196.052 357.265 190.053C357.309 188.961 357.026 187.88 356.454 186.95C355.451 189.234 354.435 191.499 353.457 193.777C350.943 199.66 348.392 205.531 345.977 211.458C345.296 213.14 344.429 213.866 342.553 213.748C339.771 213.584 336.982 213.584 334.201 213.748C332.25 213.86 331.284 213.128 330.486 211.365C327.39 204.284 324.071 197.277 320.845 190.264C320.41 189.169 319.78 188.162 318.987 187.291V213.698L323.644 214.133V223.827H310.288C306.883 223.827 303.477 223.759 300.072 223.827C298.245 223.877 297.421 223.287 297.514 221.345C297.632 218.992 297.514 216.634 297.514 214.077L303.489 213.717V176.542C303.285 176.393 303.136 176.188 302.963 176.17C301.26 175.94 298.195 176.027 298.084 175.493C297.465 172.545 297.589 169.448 297.465 166.14C306.232 166.14 314.474 166.072 322.709 166.24C323.526 166.24 324.653 167.481 325.08 168.437C328.987 176.97 332.776 185.566 336.609 194.143C337.012 195.049 337.464 195.936 338.238 197.55C340.485 192.337 342.485 187.769 344.429 183.183C346.566 178.143 348.59 173.06 350.807 168.064C351.172 167.245 352.293 166.202 353.079 166.202C361.221 166.066 369.37 166.122 377.809 166.122V175.779L372.825 176.256Z" fill="#00A3FF"/>
<path d="M58.7848 186.968C58.1656 188.334 57.5464 189.693 56.9272 191.071C54.0109 197.897 51.0636 204.724 48.2588 211.582C47.6396 213.134 46.8409 213.953 45.0886 213.742C43.9622 213.568 42.8157 213.568 41.6893 213.742C35.5595 214.983 32.5007 212.209 30.4512 206.512C28.055 199.852 24.6929 193.541 21.2874 187.148V213.692L25.9127 214.108V223.815H14.7675C10.6376 223.815 6.51389 223.765 2.38398 223.815C0.675051 223.846 -0.0431936 223.225 0.0249158 221.475C0.1116 219.116 0.0249158 216.752 0.0249158 214.586C0.452148 214.269 0.60075 214.058 0.774119 214.04C6.19191 213.494 6.19191 213.494 6.19191 207.84C6.19191 198.737 6.19191 189.635 6.19191 180.532C6.19191 175.872 6.43339 175.915 1.94436 175.99C1.36878 175.952 0.79601 175.88 0.229244 175.772V166.128H6.35909C12.2351 166.128 18.1234 166.19 23.9932 166.091C25.7703 166.06 26.699 166.587 27.4359 168.3C31.1943 176.989 35.1075 185.677 38.9835 194.329C39.386 195.235 39.8689 196.11 40.5934 197.575C43.392 190.996 45.9307 185.032 48.4507 179.055C49.9739 175.45 51.3856 171.782 53.0202 168.226C53.4165 167.363 54.4815 166.233 55.2555 166.221C63.4905 166.078 71.7255 166.134 80.1897 166.134V175.505C80.0535 175.611 79.9111 175.828 79.7439 175.847C74.8957 176.467 74.8957 176.467 74.8895 181.432V213.643L80.1402 214.133V223.535H54.9149V214.394C55.0264 214.3 55.175 214.089 55.3421 214.071C59.5835 213.599 59.5835 213.599 59.5835 209.187C59.5835 201.859 59.5835 194.527 59.5835 187.192L58.7848 186.968Z" fill="#00A3FF"/>
<path d="M399.938 175.717V166.327H424.953V175.636C420.223 176.66 420.216 176.66 420.21 181.656C420.21 188.787 420.334 195.93 420.173 203.049C419.956 212.426 426.687 214.841 433.405 213.432C437.436 212.582 440.123 209.863 440.216 205.364C440.482 195.781 440.296 186.18 440.296 176.418L435.795 175.797V166.327H460.494V175.487C460.321 175.624 460.172 175.835 460.005 175.853C455.776 176.406 455.788 176.406 455.788 180.868C455.788 188.514 455.937 196.166 455.732 203.831C455.417 215.405 449.726 222.046 438.396 224.094C432.09 225.267 425.606 225.074 419.381 223.529C410.062 221.196 404.7 214.474 404.52 204.712C404.359 196.756 404.465 188.799 404.452 180.843C404.452 176.368 404.452 176.368 399.938 175.717Z" fill="#00A3FF"/>
<path d="M85.1553 176.052V166.327H110.015V175.512C109.755 175.679 109.594 175.859 109.396 175.878C105.235 176.3 105.241 176.294 105.241 180.564C105.241 188.011 105.21 195.459 105.241 202.906C105.279 211.136 110.436 215.219 118.448 213.407C122.343 212.526 124.925 210.111 125.185 205.96C125.612 199.058 125.55 192.132 125.68 185.212C125.68 183.865 125.68 182.525 125.68 181.178C125.68 176.48 125.68 176.48 121.037 175.673V166.327H145.859V175.76L141.271 176.244C141.209 177.281 141.098 178.274 141.098 179.26C141.098 187.124 141.172 194.981 141.067 202.844C140.906 214.841 135.408 221.624 123.848 223.945C117.351 225.274 110.636 225.08 104.226 223.38C94.3191 220.755 89.5267 213.792 89.4647 202.18C89.4647 195.043 89.3657 187.906 89.5143 180.775C89.6133 177.678 89.6257 175.015 85.1553 176.052Z" fill="#00A3FF"/>
<path d="M493.36 176.051C488.004 176.051 483.484 175.952 478.97 176.157C478.246 176.188 477.113 177.553 476.983 178.404C476.704 180.725 476.89 183.108 476.89 185.714H466.544V166.395H513.793C514.202 171.471 514.468 176.033 510.697 180.52C502.313 190.45 494.598 200.945 486.549 211.21C486.054 211.83 485.627 212.544 484.692 213.909H491.794C495.199 213.909 498.605 213.798 502.01 213.953C504.233 214.052 504.895 213.177 504.79 211.073C504.654 208.411 504.79 205.742 504.79 202.856H515.589V223.603C514.499 223.678 513.508 223.802 512.493 223.802C497.428 223.802 482.364 223.765 467.293 223.876C464.655 223.876 464.197 222.964 463.986 220.488C463.658 215.87 465.02 212.283 467.974 208.696C475.899 199.039 483.422 189.053 491.094 179.186C491.732 178.379 492.295 177.541 493.36 176.051Z" fill="#00A3FF"/>
<path d="M151.271 205.929H161.76C161.933 206.289 162.058 206.671 162.131 207.064C162.459 212.563 162.441 212.65 167.989 213.215C170.756 213.491 173.543 213.491 176.31 213.215C179.629 212.867 181.883 210.651 181.982 208.008C182.081 204.855 179.914 203.539 177.326 202.627C171.797 200.684 166.181 198.903 160.782 196.687C154.559 194.149 150.664 189.805 151.079 182.463C151.494 175.121 155.067 169.616 162.175 167.307C172.633 163.919 183.103 164.825 193.369 168.443C193.784 168.66 194.142 168.972 194.414 169.354C194.686 169.736 194.865 170.176 194.935 170.64C195.146 174.14 195.041 177.659 195.158 181.191C195.214 182.953 194.489 183.63 192.787 183.499C191.864 183.431 190.929 183.499 190 183.499C188.36 183.462 186.285 183.977 185.196 183.177C184.248 182.494 184.527 180.241 183.957 178.789C183.798 178.401 183.555 178.054 183.244 177.774C182.933 177.493 182.563 177.287 182.162 177.169C179.015 176.756 175.842 176.584 172.67 176.654C171.511 176.694 170.402 177.133 169.529 177.898C168.657 178.662 168.073 179.704 167.877 180.849C167.345 183.4 168.998 185.038 171.103 185.889C175.004 187.465 179.029 188.725 182.973 190.196C185.957 191.313 189.028 192.306 191.821 193.795C197.567 196.861 200.149 201.863 199.734 208.368C199.319 214.872 196.174 219.502 190.242 222.071C183.276 225.087 175.846 225.397 168.416 224.665C163.463 224.175 158.509 222.803 153.605 221.841C151.828 221.488 151.129 220.476 151.209 218.564C151.37 214.462 151.271 210.347 151.271 205.929Z" fill="#00A3FF"/>
<path d="M257.039 202.943C257.039 209.596 257.101 215.976 256.915 222.356C256.915 222.878 255.175 223.771 254.228 223.784C247.318 223.908 240.408 223.852 233.498 223.852C224.934 223.852 216.371 223.802 207.808 223.889C205.734 223.889 204.768 223.362 204.929 221.121C205.09 218.881 204.929 216.616 204.929 214.568C205.43 214.257 205.591 214.077 205.771 214.065C211.121 213.637 211.121 213.637 211.127 208.119C211.127 198.81 211.009 189.501 211.201 180.191C211.263 177.02 210.446 175.506 207.102 176.027C206.441 176.031 205.782 175.954 205.139 175.797V166.327H232.637V175.822L227.275 176.219V213.637H246.086V202.943H257.039Z" fill="#00A3FF"/>
<path d="M262.531 175.791V166.327H290.177V175.847L284.803 176.213V213.742L290.146 214.052V223.635C288.945 223.697 287.75 223.815 286.555 223.815C279.441 223.815 272.314 223.771 265.206 223.852C263.237 223.852 262.382 223.275 262.5 221.214C262.63 218.962 262.5 216.69 262.5 214.096L268.178 213.773C268.258 212.395 268.401 211.098 268.401 209.807C268.401 199.985 268.401 190.165 268.401 180.346C268.401 175.797 268.816 176.046 264.339 176.002C263.967 176.002 263.565 175.915 262.531 175.791Z" fill="#00A3FF"/>
<path d="M400.075 217.081C400.038 218.618 399.549 220.109 398.669 221.368C397.789 222.627 396.557 223.597 395.129 224.156C393.7 224.715 392.139 224.838 390.64 224.51C389.142 224.182 387.774 223.417 386.709 222.312C385.643 221.207 384.927 219.81 384.651 218.298C384.374 216.786 384.55 215.226 385.156 213.814C385.762 212.402 386.771 211.201 388.056 210.363C389.341 209.524 390.845 209.085 392.379 209.1C393.411 209.104 394.432 209.315 395.382 209.72C396.331 210.126 397.19 210.718 397.907 211.462C398.625 212.206 399.186 213.087 399.559 214.052C399.931 215.017 400.106 216.047 400.075 217.081Z" fill="#00A3FF"/>
<path d="M514.784 41.0666C514.889 42.9284 515.087 44.7903 515.087 46.6522C515.087 76.0282 515.099 105.404 515.124 134.78C515.124 136.146 514.35 137.97 516.616 138.585C516.852 138.653 516.975 139.497 516.982 139.981C516.982 143.165 516.982 146.349 516.982 149.768H1.31283C1.31283 146.299 0.0744802 142.197 1.5605 139.708C4.77403 134.265 3.09606 128.822 3.16417 123.504C3.46138 102.514 3.34992 81.5125 3.25705 60.5168C3.2199 51.0958 4.09913 41.6127 1.31903 31.6828H228.712C228 28.9582 228.99 26.0041 225.987 25.551C224.749 25.3711 223.263 27.1957 221.82 28.1576C221.158 27.537 220.018 25.551 218.792 25.489C217.566 25.4269 216.316 27.3508 215.195 28.288C214.322 27.4812 213.139 25.52 211.92 25.4952C210.7 25.4704 209.331 27.3074 208.254 28.1576C207.35 27.3633 206.18 25.551 204.886 25.4579C203.759 25.3773 202.496 27.2391 201.381 28.1763C200.558 27.4315 199.375 25.489 198.137 25.4455C196.898 25.4021 195.66 27.357 194.7 28.2135C193.666 27.3384 192.465 25.5448 191.152 25.4579C190.056 25.3835 188.824 27.3198 187.543 28.4493C187.516 27.9569 187.367 27.4789 187.109 27.0591C186.459 26.3392 185.623 25.4207 184.793 25.3338C183.964 25.2469 182.348 25.9234 182.211 26.5192C181.32 30.5098 178.496 28.5052 176.936 28.7162C175.84 25.8117 174.806 23.2299 173.896 20.6047C173.326 18.96 174.144 18.3705 175.753 18.3891C179.883 18.4387 184.013 18.3891 188.137 18.3891C200.421 18.3891 212.7 18.3146 224.978 18.4449C227.709 18.4449 228.91 17.8802 228.662 14.8764C228.253 9.98586 228.173 5.07054 227.944 -0.0185547H350.132C349.959 3.8293 349.686 7.57164 349.649 11.3202C349.575 18.4015 349.649 18.4015 356.794 18.4015H404.942C404.007 21.9825 403.152 25.2718 402.23 28.8155H397.419L397.79 28.1576C396.552 27.1771 395.388 25.5014 394.112 25.4207C393.029 25.3524 391.834 27.1274 390.868 27.9032C389.914 27.2019 388.639 25.6255 387.153 25.4207C386.267 25.2904 385.085 27.2826 384.1 28.288C383.159 27.4315 382.026 25.6131 380.664 25.4269C379.58 25.278 378.218 27.1088 377.141 27.9094C376.199 27.2267 374.893 25.6379 373.395 25.4269C372.466 25.3028 371.246 27.2888 370.423 28.0521C369.364 27.2019 368.101 25.4145 366.776 25.3711C365.63 25.3338 364.423 27.2764 363.488 28.1142C362.392 27.2702 361.147 25.7 359.643 25.3959C358.819 25.2345 357.575 27.2143 356.262 28.499C355.29 27.5681 355.11 23.8443 352.243 25.6752C350.77 26.6123 350.194 28.9582 349.21 30.6712L349.971 31.7324H516.864C516.034 35.3444 515.372 38.2303 514.703 41.1224C513.929 40.7811 513.192 40.2101 512.393 40.1232C510.486 39.9184 508.418 40.7438 507.583 37.7462C507.137 36.1575 504.623 36.5857 503.632 38.3048C503.384 38.7788 503.16 39.2656 502.963 39.7633C501.725 38.6648 500.604 36.9084 499.7 37.0263C498.462 37.1815 497.428 38.7641 496.518 39.5398C495.583 38.6958 494.499 36.9705 493.509 37.0263C492.332 37.0884 491.242 38.6834 490.32 39.4405C489.373 38.6772 488.208 37.0015 487.106 37.0387C486.004 37.076 484.952 38.8323 484.19 39.5212C483.094 38.5841 481.911 36.8588 481.057 37.0077C479.819 37.2249 478.828 38.8013 478.011 39.5398C476.927 38.5965 475.751 36.8526 474.871 36.9891C473.633 37.1815 472.642 38.7889 471.825 39.5398C470.742 38.6089 469.584 36.8836 468.642 36.9953C467.46 37.138 466.457 38.7827 465.646 39.5336C464.568 38.6089 463.398 36.8774 462.482 37.0015C461.28 37.1691 460.277 38.7951 459.435 39.5647C458.432 38.6648 457.336 36.9332 456.395 37.0139C455.157 37.1132 454.104 38.6772 452.99 39.5895C450.668 35.7292 449.374 35.7292 447.12 39.7074C446.055 38.7517 444.94 36.9767 443.888 37.0139C442.835 37.0511 441.696 38.7951 440.854 39.5647C439.832 38.6524 438.693 36.896 437.758 37.0077C436.52 37.1629 435.473 38.7454 434.582 39.4902C433.64 38.6399 432.544 36.896 431.603 36.9767C430.365 37.0822 429.3 38.6461 428.179 39.5585C425.882 35.6423 424.681 35.6423 422.21 39.8191C419.523 35.6548 418.985 35.6548 416.192 39.8812C412.749 35.7354 412.396 35.7292 409.957 39.6019C408.867 38.6648 407.716 36.9208 406.7 36.9953C405.542 37.0822 404.502 38.7889 403.084 40.0984C402.638 38.522 401.846 37.0636 401.92 35.661C402.087 32.8558 401.053 32.1917 398.372 32.2103C383.209 32.3344 368.033 32.26 352.869 32.2724C351.878 32.2724 350.888 32.3903 349.891 32.4523V137.958H357.94V35.059H390.521C394.502 35.059 394.508 35.059 394.515 39.124V137.915C402.161 138.963 402.118 138.963 402.106 131.919C402.073 118.212 402.073 104.5 402.106 90.7845H402.533V106.344H411.016V88.3455H402.087V46.4287C402.428 46.2488 402.79 46.1112 403.165 46.0191C404.091 45.9334 405.021 45.9065 405.951 45.9384C421.566 46.8446 437.157 45.5288 452.872 47.0742C470.556 48.8057 488.537 47.4341 506.388 47.5086C509.112 47.5086 509.409 45.8764 508.765 44.1386C508.499 43.4187 506.629 42.947 505.483 42.947C472.671 42.8767 439.855 42.8581 407.034 42.8912H402.558V42.2023H405.561C440.647 42.2023 475.734 42.1878 510.821 42.1589C512.146 42.1527 513.465 41.4451 514.784 41.0666ZM9.62837 48.514V138.02H72.3633V48.9423L70.7659 50.9903C70.4005 50.3697 70.0662 49.8235 69.5832 49.0043L68.3449 51.0462C67.9362 50.3635 67.6081 49.8049 67.1065 48.9919L65.831 51.0772C65.4409 50.3449 65.1376 49.7677 64.667 48.8926L63.3357 51.0089L62.0974 48.9981C61.5835 49.867 61.2677 50.3945 60.9024 51.0027L59.6455 49.0291L58.4071 51.0337L57.1316 48.9981L55.9923 51.0648L54.6858 48.9174L53.4475 51.0772L52.2091 48.9857L50.9213 51.2013C50.3021 49.1471 49.5219 48.3092 48.6055 50.8351L47.5158 48.9733L46.3517 51.0648L44.9586 49.0291L43.8503 51.1268L42.5562 49.0291L41.355 51.071L40.1166 49.0353L38.7297 51.2448L37.5223 49.2277L36.2839 51.3441C35.8072 50.4876 35.4852 49.9166 35.1013 49.2401L33.9311 50.891C33.4295 50.2704 33.0456 49.7242 32.5936 49.1284L31.4482 50.9903C30.959 50.2704 30.6246 49.687 30.1293 48.8802C29.6897 49.7739 29.3925 50.3573 29.0272 51.0958C28.5752 50.3511 28.247 49.7925 27.7517 48.9733L26.5814 50.9717L25.1387 49.0291C24.6991 49.8608 24.3957 50.4317 24.0304 51.1082C23.566 50.3449 23.2255 49.7925 22.7425 49.0105C22.2596 49.8608 21.9438 50.4317 21.5785 51.0772L20.3401 48.9298L19.1018 51.04L17.7644 49.0974L16.6065 51.0213L15.2629 48.905C14.8233 49.7739 14.5323 50.3573 14.1793 51.0462L12.879 48.9733L11.7088 50.9469L9.62837 48.514ZM450.761 138.032C451.399 138.133 452.041 138.201 452.686 138.237C470.642 138.237 488.599 138.206 506.555 138.299C509.13 138.299 509.031 136.89 509.031 135.134C509.031 107.537 509.031 79.9381 509.031 52.3371C509.031 51.3068 508.815 50.2766 508.598 48.3527L506.487 51.0958L505.397 48.8367C504.833 49.867 504.493 50.4752 504.078 51.2385L502.926 48.8181L501.614 51.2323L500.468 48.8119C499.917 49.8235 499.577 50.4442 499.193 51.1579L497.818 48.9671C497.354 49.9104 497.063 50.4876 496.685 51.2385C496.227 50.4193 495.886 49.8173 495.341 48.8554L494.221 51.4434L493.05 48.694C492.487 49.7677 492.165 50.3697 491.812 51.0586L490.574 48.7809C489.992 49.7987 489.633 50.4193 489.143 51.2634C488.797 50.4317 488.524 49.8422 488.128 48.8492C487.558 49.8049 487.187 50.4193 486.741 51.1579C486.314 50.4069 485.961 49.8049 485.435 48.8926L484.295 51.2634L482.995 48.8429L481.831 51.3254C481.398 50.469 481.076 49.8422 480.593 48.8429L479.299 51.2882L478.196 49.0291L477.076 50.891L475.528 48.9733L474.432 50.9531L473.33 48.9423L472.029 51.0772C471.645 50.3449 471.342 49.7677 470.878 48.8988L469.534 51.0089C469.095 50.2952 468.773 49.7677 468.296 48.9857L467.107 51.0027L465.825 49.0291L464.63 51.0151L463.392 49.0105C462.866 49.8794 462.531 50.4193 462.154 51.0524L460.952 48.8864C460.426 49.8049 460.104 50.3821 459.714 51.0772L458.476 48.9857C457.98 49.7863 457.634 50.3386 457.237 51.0151L455.999 48.9981L454.761 51.0337L453.541 49.0291L452.148 51.0213C451.764 50.258 451.528 49.7801 451.275 49.3022L450.767 49.445L450.761 138.032ZM232.191 7.11238V137.983H239.931V14.9757H338.269V137.995H346.12V134.383C346.12 93.2153 346.143 52.0474 346.188 10.8796C346.188 7.90678 345.414 7.0317 342.411 7.04411C306.808 7.14341 271.208 7.1641 235.609 7.10618L232.191 7.11238ZM4.1177 40.117L3.70905 41.3583C4.65019 41.6437 5.57277 42.2023 6.53868 42.2023C33.6627 42.2437 60.7889 42.2437 87.9171 42.2023C116.597 42.2023 145.273 42.1878 173.945 42.1589C176.02 42.1589 176.911 42.7298 176.911 44.9517C176.862 74.4519 176.851 103.952 176.88 133.452C176.558 128.239 175.407 127.662 167.983 129.151V137.288L184.026 138.274V35.2513H220.854V137.964H228.476C228.544 137.269 228.619 136.866 228.619 136.456C228.619 102.529 228.639 68.6015 228.681 34.6742C228.681 32.2972 227.597 31.9745 225.659 31.9931C218.439 32.0551 211.214 32.0303 203.988 32.0303C195.939 32.0303 187.889 32.0986 179.84 31.9807C177.53 31.9434 176.639 32.6758 176.862 34.9907C177.017 36.5733 176.893 38.1807 176.893 39.8129C175.438 38.6027 174.261 36.9084 173.345 37.0387C172.106 37.2125 171.116 38.8137 170.249 39.5771C169.221 38.6772 168.069 36.927 167.153 37.0387C165.915 37.1939 164.912 38.8013 164.175 39.453C162.986 38.5779 161.754 36.9705 160.676 37.0698C159.599 37.1691 158.522 38.8944 157.723 39.6453C156.695 38.6896 155.556 36.9084 154.739 37.0512C153.5 37.2622 152.516 38.8075 151.643 39.5709C150.646 38.6834 149.513 36.9332 148.59 37.0387C147.352 37.1753 146.312 38.7641 145.408 39.5212C144.473 38.6834 143.358 36.9519 142.398 37.0387C141.197 37.1318 140.12 38.7268 139.203 39.5212C138.312 38.7268 137.216 37.0077 136.225 37.0387C135.049 37.107 133.959 38.702 132.962 39.5212C132.095 38.7517 131.018 37.0387 129.866 37.0387C128.715 37.0387 127.631 38.6896 126.708 39.453C125.891 38.7144 124.783 36.9705 123.835 37.0387C122.597 37.1442 121.538 38.7268 120.579 39.5212C119.718 38.733 118.628 36.9767 117.662 37.0387C116.455 37.1256 115.347 38.6958 114.213 39.6081C111.941 35.7168 110.808 35.723 108.232 39.8936C105.607 35.7416 104.282 35.7354 102.214 39.6516C101.106 38.7206 99.9662 37.0139 98.8703 37.0387C97.7743 37.0636 96.7155 38.8261 95.9106 39.5771C94.8518 38.6461 93.6816 36.8836 92.8147 37.0201C91.5764 37.2125 90.5733 38.8137 89.7189 39.5709C88.6601 38.6586 87.496 36.9208 86.5858 37.0449C85.3475 37.2187 84.3506 38.8261 83.4899 39.5895C82.4683 38.6834 81.3352 36.9394 80.3941 37.0449C79.1557 37.1815 78.1279 38.7765 77.2424 39.5274C76.3075 38.6834 75.193 36.9394 74.2518 37.0449C73.0135 37.1567 71.9609 38.7392 71.0259 39.5274C70.1281 38.7206 69.026 36.9767 68.0601 37.0449C66.8589 37.138 65.7691 38.7268 64.6608 39.6516C62.4317 35.7478 61.1872 35.7416 58.6672 39.8874C56.0233 35.754 54.8468 35.7541 52.6178 39.695C51.5404 38.7517 50.4073 37.0077 49.33 37.0325C48.2526 37.0574 47.1567 38.8261 46.3517 39.5771C45.2558 38.6275 44.0855 36.8836 43.1877 37.0139C41.9494 37.1877 40.9773 38.8137 40.2281 39.4964C39.0578 38.5841 37.8504 36.9208 36.8164 37.0139C35.6647 37.1318 34.6803 38.8758 33.9558 39.5585C32.8661 38.6089 31.6649 36.8588 30.8599 37.0263C29.6216 37.2808 28.699 38.8882 27.8755 39.6702C26.7734 38.7206 25.6341 36.9891 24.5505 37.0201C23.467 37.0512 22.4825 38.8634 21.6714 39.5895C20.5692 38.6524 19.3928 36.927 18.5012 37.0636C17.2628 37.256 16.2783 38.8634 15.4053 39.6702C14.4579 38.733 13.6406 37.3428 12.5447 37.0636C11.8946 36.896 10.8358 38.5344 9.88224 39.2668C9.36967 39.6905 8.7545 39.971 8.09901 40.0798C6.81112 40.1977 5.44893 40.117 4.1177 40.117ZM325.811 139.342C325.911 138.761 325.979 138.174 326.015 137.586C326.015 114.002 326.12 90.4494 325.904 66.8782C325.823 63.7874 324.888 60.7797 323.204 58.1895C315.062 45.9819 303.842 37.1691 290.964 30.4477C290.147 30.1072 289.269 29.9376 288.384 29.9494C287.499 29.9611 286.626 30.1539 285.818 30.516C274.033 36.3381 263.659 44.6708 255.423 54.9312C252.42 58.6984 250.587 62.8504 250.63 67.9643C250.81 90.5984 250.711 113.27 250.711 135.879V139.193H257.912V135.295C257.912 112.86 257.819 90.4246 258.023 67.9953C258.075 64.9239 258.95 61.9229 260.556 59.3066C266.407 50.1773 274.735 43.6359 283.93 38.0752C286.933 36.2568 289.577 36.2568 292.555 38.0379C300.818 42.965 308.153 49.3091 314.226 56.7807C317.421 60.703 318.814 65.0163 318.765 70.1923C318.566 92.0009 318.684 113.816 318.684 135.631V139.354L325.811 139.342ZM335.507 139.342V27.0591H290.122C291.824 27.959 292.722 28.4121 293.601 28.921C305.013 35.2141 315.056 43.1953 323.179 53.4418C326.854 57.9576 328.8 63.6402 328.665 69.4662C328.467 91.4982 328.572 113.53 328.566 135.556V139.348L335.507 139.342ZM74.6605 52.1322H100.926V137.964C104.492 138.951 104.022 136.667 104.022 134.861C104.022 108.596 104.022 82.3234 104.022 56.0422C104.022 54.7451 104.133 53.448 104.189 52.1757H130.027V137.883C133.346 139.013 133.123 136.959 133.123 135.022C133.123 108.956 133.123 82.8902 133.123 56.8241V52.1322H159.129V137.946C162.621 138.939 162.268 136.704 162.268 134.886C162.268 108.621 162.268 82.3482 162.268 56.067C162.268 54.7637 162.379 53.4604 162.441 52.1322C162.939 52.0388 163.441 51.9704 163.946 51.9274C167.556 51.9274 171.172 51.9274 174.775 51.8468C175.339 51.8468 175.89 51.2261 176.441 50.8724C175.952 50.347 175.406 49.8786 174.812 49.476C174.313 49.3425 173.792 49.3192 173.283 49.4077C141.086 49.4077 108.889 49.387 76.6914 49.3457C74.0785 49.3457 73.3974 50.1897 73.4036 52.7218C73.484 80.1285 73.4469 107.535 73.4531 134.936C73.4531 135.978 73.5893 137.021 73.6636 138.039L74.6481 138.001L74.6605 52.1322ZM242.717 26.9164V139.249H247.987V135.364C247.987 112.73 247.869 90.0956 248.11 67.4616C248.218 63.8785 249.176 60.3727 250.903 57.2338C255.349 49.1222 262.265 43.1208 269.596 37.7152C274.822 33.8612 280.419 30.5036 285.911 26.8916L242.717 26.9164ZM445.807 137.933C448.6 138.554 450.414 138.616 450.402 135.202C450.336 107.597 450.336 79.9919 450.402 52.3867C450.402 50.2145 449.782 49.2836 447.386 49.2836C433.257 49.3705 419.127 49.2836 404.997 49.3829C404.1 49.3829 403.214 50.1587 402.323 50.5745C403.27 51.0337 404.211 51.853 405.177 51.8902C408.941 52.0454 412.712 51.9523 416.762 51.9523V137.883C420.019 138.994 419.932 137.083 419.926 135.072C419.926 108.592 419.926 82.1248 419.926 55.6698V52.2191H445.838L445.807 137.933ZM189.338 41.321H188.335C188.279 42.4692 188.174 43.6235 188.174 44.7779C188.174 74.667 188.174 104.554 188.174 134.439C188.08 135.155 188.099 135.882 188.23 136.593C188.566 137.194 189.001 137.733 189.518 138.188C190.016 137.7 190.444 137.144 190.787 136.537C190.917 135.925 190.936 135.294 190.843 134.675C190.843 109.85 190.843 85.0252 190.843 60.2003C190.843 53.87 194.05 49.0291 200.007 46.9625C201.544 46.4751 203.194 46.4751 204.731 46.9625C210.594 48.9422 214.019 53.9072 214.019 60.1693C214.019 84.7831 214.019 109.401 214.019 134.023C213.967 135.059 214.006 136.097 214.136 137.126C214.234 137.377 214.393 137.598 214.599 137.771C214.804 137.943 215.05 138.061 215.313 138.113C215.58 138.064 215.832 137.952 216.047 137.785C216.263 137.619 216.435 137.404 216.551 137.157C216.725 136.456 216.778 135.729 216.706 135.01C216.706 104.711 216.706 74.4105 216.706 44.1076C216.66 43.1929 216.565 42.2813 216.421 41.3769H215.69C215.511 42.0844 215.331 42.7919 215.028 43.9649L213.474 40.6073L212.025 43.4435C211.604 42.6554 211.22 41.9541 210.576 40.7563L209.381 43.94L208.143 40.7004L206.687 43.4125L204.991 40.5514C204.489 42.0409 204.229 42.8043 203.827 44.0083C203.369 42.7671 203.084 42.0223 202.589 40.6818L201.233 43.7042C200.793 42.6429 200.477 41.8858 199.926 40.6011L198.391 43.3877C197.92 42.5995 197.511 41.9044 196.812 40.7128C196.397 42.0534 196.155 42.8167 195.833 43.8594C195.282 42.7671 194.892 41.9975 194.217 40.6632C193.728 42.0347 193.468 42.7422 193.158 43.6111L191.406 40.508C190.849 42.072 190.583 42.8291 190.1 44.2317C189.716 42.7485 189.53 42.0347 189.338 41.321ZM362.423 40.657V138.039C365.29 138.715 364.813 136.679 364.813 135.159C364.813 109.817 364.813 84.479 364.813 59.1453C364.813 53.4976 369.005 48.2223 374.621 46.6273C378.069 45.6468 383.506 48.4892 385.964 53.1066C387.036 55.2006 387.602 57.5178 387.617 59.8714C387.729 84.4852 387.679 109.105 387.679 133.725C387.59 134.651 387.612 135.585 387.747 136.506C387.914 137.126 388.583 137.635 389.029 138.2C389.54 137.724 389.98 137.176 390.335 136.574C390.472 135.963 390.493 135.331 390.397 134.712C390.397 104.815 390.397 74.9235 390.397 45.0385C390.389 43.9081 390.319 42.7789 390.187 41.6562C390.187 41.501 389.735 41.3831 389.258 41.1162C388.967 42.0161 388.725 42.7795 388.335 43.9897L387.097 40.6632C386.509 42.0037 386.162 42.7919 385.735 43.7663L384.465 40.5204C383.735 41.8672 383.351 42.5871 382.924 43.3877L381.456 40.7004C380.93 41.9975 380.608 42.7857 380.181 43.8035L378.868 40.4646C378.305 41.9416 378.014 42.6926 377.673 43.5677C377.134 42.6181 376.695 41.8548 375.939 40.539L374.738 43.7663C374.261 42.705 373.915 41.9044 373.326 40.6011C372.707 41.923 372.361 42.6554 371.989 43.456L370.447 40.4273C369.865 41.9354 369.568 42.6926 369.159 43.7352L367.704 40.5577L366.627 43.878L365.314 40.7314C364.602 41.7989 364.175 42.4506 363.711 43.1581C363.633 42.8494 363.534 42.5466 363.413 42.252C363.265 41.9292 363.048 41.6437 362.423 40.657ZM9.62218 42.8788C9.05254 47.4403 9.07731 47.4714 12.941 47.4714C22.3215 47.4714 31.7144 47.7382 41.0825 47.4031C52.8036 46.9873 64.6546 49.1346 76.227 45.7212C108.296 45.7212 140.361 45.7047 172.422 45.6716C173.84 45.6716 176.503 44.7406 176.472 44.4738C176.168 41.712 173.853 42.9533 172.41 42.9533C124.16 42.8664 75.9071 42.8415 27.6526 42.8788H9.62218ZM105.508 52.7529L104.821 52.8273C104.759 53.9879 104.641 55.1423 104.641 56.2966C104.641 82.0483 104.655 107.794 104.684 133.533C104.684 134.873 105.551 137.399 105.712 137.375C108.325 136.984 107.068 134.818 107.074 133.458C107.167 111.644 107.118 89.8288 107.167 68.0139C107.167 62.838 111.613 57.7427 116.455 57.0662C119.755 56.6007 125.049 60.9078 126.287 65.2398C126.692 66.7279 126.888 68.2653 126.869 69.8075C126.907 91.1073 126.907 112.415 126.869 133.732C126.81 134.559 126.829 135.39 126.925 136.214C127.018 136.704 127.489 137.12 127.792 137.573C128.244 137.168 128.626 136.693 128.925 136.164C129.044 135.551 129.06 134.922 128.975 134.302V53.1314L128.455 53.0011L127.495 54.6147L126.312 52.1322C125.86 53.2432 125.619 53.839 125.303 54.6147L124.065 52.4053C123.6 53.3549 123.322 53.9072 123.055 54.4472L121.767 52.3867C121.229 53.1811 120.863 53.7334 120.579 54.1555L119.377 52.3308L118.263 54.5651C117.86 53.8265 117.526 53.2245 116.956 52.1881C116.511 53.3797 116.263 54.05 115.867 55.1174C115.452 54.05 115.192 53.3797 114.721 52.1819L113.532 54.7326C113.136 53.932 112.845 53.3549 112.399 52.4674L111.161 54.3789L109.978 52.3867C109.557 53.3735 109.297 53.9941 108.975 54.7388L107.638 52.2564L106.629 54.9933C106.146 54.0376 105.824 53.4045 105.508 52.7529ZM76.4066 52.7529L75.744 52.8149C75.6821 53.8824 75.5707 54.9437 75.5707 56.0049C75.5707 82.071 75.5707 108.123 75.5707 134.16C75.4922 134.78 75.5131 135.408 75.6326 136.022C75.9108 136.582 76.272 137.096 76.7038 137.548C77.2208 137.071 77.6578 136.514 77.9978 135.897C78.1362 135.188 78.1592 134.461 78.066 133.744V105.816C78.066 93.0994 78.0164 80.3705 78.1093 67.6726C78.1093 62.7759 82.264 58.1212 87.0812 57.122C90.0718 56.5014 95.2976 60.101 96.7651 64.0916C97.3599 65.841 97.6489 67.6803 97.6196 69.5283C97.6753 90.9273 97.6505 112.351 97.6567 133.725C97.614 134.653 97.6492 135.583 97.762 136.506C97.8239 136.884 98.4616 137.511 98.6536 137.449C99.118 137.306 99.7309 136.872 99.8176 136.456C99.9471 135.537 99.9803 134.608 99.9167 133.682C99.9167 112.49 99.9167 91.2976 99.9167 70.1054C99.9167 64.6233 99.8981 59.1432 99.861 53.6652C99.861 53.4293 99.6133 53.1935 99.3966 52.8087C99.0375 53.4728 98.7774 53.9693 98.4492 54.5589L97.1118 52.2377C96.7094 53.3859 96.4927 54.0562 96.1088 55.1174C95.6382 53.9755 95.3596 53.3176 94.8704 52.1633L93.6754 54.7016C93.2853 53.8638 93.0067 53.2866 92.5609 52.3371C92.0222 53.2928 91.7064 53.87 91.3783 54.441C91.0625 53.8203 90.7591 53.2618 90.2699 52.3433L89.1616 54.6147L87.8675 52.1943L86.9264 54.6147C86.5115 53.932 86.14 53.3052 85.5332 52.306L84.4063 54.7264L83.2237 52.4053C82.7222 53.3363 82.4126 53.8948 82.0968 54.4844C81.7624 53.8638 81.4405 53.2928 80.9947 52.4798L79.7563 54.5837L78.518 52.2626L77.5458 55.0368L76.4066 52.7529ZM421.517 52.7963L420.867 52.9266C420.727 53.3877 420.633 53.8618 420.588 54.3417C420.588 81.3221 420.588 108.301 420.588 135.277C420.588 136.028 421.449 136.779 421.907 137.53C422.279 136.711 422.96 135.897 422.972 135.047C423.071 129.462 423.028 123.876 423.028 118.29C423.028 101.546 423.028 84.8018 423.028 68.0574C423.028 62.869 427.325 57.8109 432.223 57.0289C435.448 56.5138 440.65 60.5106 442.043 64.7867C442.466 66.2688 442.658 67.8074 442.612 69.3483C442.649 90.7432 442.649 112.138 442.612 133.533C442.554 134.46 442.583 135.391 442.699 136.313C442.786 136.754 443.386 137.095 443.752 137.48C444.117 137.083 444.748 136.71 444.798 136.282C444.899 134.942 444.926 133.598 444.879 132.254C444.879 108.791 444.879 85.3272 444.879 61.8636C444.879 59.077 444.879 56.278 444.804 53.4914C444.804 53.2742 444.476 53.057 444.235 52.7467L443.331 55.1547L442.247 52.1943L441.04 54.7451L439.857 52.3805L438.773 54.4906L437.535 52.5294L436.47 54.6147L435.083 52.3122C434.718 53.4169 434.507 54.0438 434.21 54.9312L432.749 52.3246L431.789 54.7264C431.356 53.8762 431.065 53.2928 430.551 52.3371C430.068 53.2928 429.771 53.8886 429.467 54.4782L428.229 52.5108L427.164 54.6892L425.926 52.4115L424.823 54.9437C424.371 53.9817 424.068 53.3363 423.585 52.2688C423.139 53.3611 422.898 53.9507 422.576 54.7513L421.517 52.7963ZM134.838 52.8956H134.095C134.021 53.8762 133.891 54.863 133.891 55.8436C133.891 82.0089 133.891 108.174 133.891 134.34C133.842 135.062 133.882 135.787 134.009 136.499C134.108 136.884 134.721 137.486 134.944 137.418C135.211 137.354 135.461 137.231 135.675 137.058C135.889 136.885 136.062 136.667 136.182 136.419C136.326 135.502 136.368 134.571 136.306 133.645C136.306 112.341 136.306 91.0328 136.306 69.7206C136.249 68.6855 136.28 67.6474 136.399 66.6175C137.241 61.7395 140.213 58.5495 144.85 57.3517C148.565 56.3835 151.55 58.6736 153.414 61.5285C154.921 63.8232 155.777 66.4855 155.89 69.2304C156.088 90.7411 156.002 112.252 156.008 133.775C155.967 134.705 156.004 135.637 156.119 136.562C156.188 136.776 156.31 136.97 156.475 137.123C156.64 137.276 156.842 137.384 157.061 137.437C157.28 137.383 157.483 137.274 157.649 137.12C157.814 136.965 157.938 136.771 158.008 136.555C158.121 135.633 158.156 134.703 158.113 133.775V53.2494L157.63 53.1439L156.788 54.9623C156.293 54.0189 155.927 53.3238 155.339 52.1881C154.943 53.3176 154.72 53.932 154.454 54.7264L153.147 52.3991L152.095 54.5465C151.711 53.8203 151.395 53.2245 150.912 52.3246C150.336 53.2369 149.971 53.8265 149.643 54.3417L148.349 52.4798L147.358 54.7016L146.12 52.1633C145.686 53.2866 145.457 53.8886 145.141 54.7016C144.727 53.9258 144.386 53.299 143.822 52.2626C143.302 53.33 143.005 53.9383 142.64 54.6768L141.47 52.4177L140.367 54.472L139.216 52.4736L137.977 54.6644C137.612 53.8762 137.358 53.2866 136.813 52.1819C136.355 53.4231 136.108 54.0438 135.693 55.1733L134.838 52.8956ZM391.995 138.293L393.388 138.02C393.431 137.021 393.518 136.022 393.518 135.022C393.518 103.693 393.528 72.3666 393.549 41.0417C393.549 38.5903 392.855 37.5414 390.193 37.5787C380.905 37.7152 371.618 37.6283 362.33 37.6407C361.599 37.6407 360.875 37.7649 360.144 37.8269C360.144 37.9821 360.144 38.131 360.144 38.2862H391.14V38.7268H359.389V138.113L360.627 138.287C360.867 137.118 361.028 135.934 361.11 134.743C361.135 104.453 361.135 74.1602 361.11 43.8656V40.4522H391.413V90.3129C391.413 105.208 391.413 120.103 391.413 134.998C391.514 136.111 391.709 137.213 391.995 138.293ZM367.302 93.7511C367.302 96.4322 367.37 99.1195 367.302 101.819C367.24 103.731 367.828 104.662 369.921 104.612C374.138 104.506 378.36 104.531 382.583 104.612C384.36 104.612 385.233 104.109 385.215 102.167C385.14 96.5935 385.14 91.0204 385.215 85.4472C385.215 83.5357 384.441 82.9213 382.626 82.9647C378.41 83.033 374.181 83.0516 369.964 82.9647C367.915 82.9213 367.246 83.7901 367.32 85.7451C367.376 88.3765 367.302 91.0638 367.302 93.7511ZM268.258 23.2113C267.484 22.3424 266.277 20.2882 265.689 20.4806C263.998 20.9336 262.556 22.2866 261.355 23.0686C260.463 22.2617 259.212 20.2758 258.191 20.3875C256.742 20.5488 255.466 22.2493 254.568 22.9568C253.578 22.1314 252.389 20.3751 251.175 20.3564C249.962 20.3378 248.773 22.0942 247.566 23.0686L247.987 23.6892L242.414 24.0864C242.377 24.4712 242.346 24.8559 242.309 25.2407C243.439 25.5002 244.588 25.6724 245.745 25.7558C257.602 25.7931 269.46 25.7558 281.317 25.7558C298.332 25.7558 315.345 25.7558 332.356 25.7558C333.517 25.6514 334.667 25.4437 335.792 25.1352C335.73 24.7318 335.662 24.3346 335.6 23.9312H330.473L330.851 23.1492C329.879 22.1749 328.634 20.2261 327.997 20.4123C326.399 20.8716 325.074 22.2742 323.947 23.112C322.95 22.2742 321.675 20.3502 320.455 20.3875C319.235 20.4247 317.978 22.361 317.062 23.1679C315.929 22.2804 314.672 20.5861 313.235 20.4123C312.263 20.2944 311.037 22.3176 310.14 23.1927C309.186 22.3486 307.898 20.3502 306.722 20.4123C305.372 20.493 304.127 22.3921 303.13 23.2485C302.078 22.3176 300.74 20.282 299.713 20.4309C298.288 20.6357 297.1 22.4852 296.245 23.2423C295.162 22.2121 293.954 20.2696 293.094 20.4185C291.583 20.6792 290.289 22.2059 289.218 22.9817C288.258 22.2121 286.896 20.2944 285.744 20.4123C284.357 20.555 283.143 22.4231 282.264 23.1927C281.273 22.2742 280.035 20.2758 279.051 20.3937C277.633 20.5674 276.394 22.2555 275.336 23.1058C274.401 22.3114 273.138 20.4123 271.868 20.4123C270.599 20.4123 269.342 22.2742 268.258 23.2113ZM193.598 93.7697C193.598 96.4508 193.691 99.1381 193.567 101.838C193.48 103.749 193.994 104.68 196.106 104.631C200.316 104.519 204.539 104.544 208.756 104.631C210.557 104.662 211.337 104.072 211.307 102.148C211.214 96.5625 211.238 91.0204 211.307 85.4534C211.307 83.8212 210.898 82.9709 209.078 82.9709C204.657 83.0371 200.236 83.0371 195.815 82.9709C194.001 82.9709 193.549 83.8336 193.586 85.4534C193.648 88.2028 193.592 90.9893 193.598 93.7697ZM217.746 40.3404V99.2995C217.746 105.921 217.709 112.537 217.746 119.159C217.796 125.471 217.529 131.808 218.594 138.094C219.253 136.968 219.575 135.675 219.523 134.371C219.523 104.796 219.523 75.2235 219.523 45.653C219.523 43.8966 219.523 42.134 219.523 40.3777C219.523 38.5158 218.724 37.5911 216.65 37.6097C207.263 37.6904 197.877 37.6097 188.49 37.6531C187.753 37.6531 187.022 37.7649 186.286 37.8269V38.2738H215.282V38.7827H185.134V43.0526C185.134 73.5582 185.134 104.062 185.134 134.563C185.069 135.392 185.102 136.225 185.233 137.046C185.357 137.542 185.945 137.915 186.323 138.343L187.177 138.051V40.3404H217.746ZM163.878 52.7963L162.955 53.0197V56.911C162.955 82.522 162.967 108.137 162.992 133.756C162.992 134.998 163.655 136.282 164.008 137.548C164.447 136.307 165.246 135.004 165.246 133.732C165.327 112.351 165.296 90.9707 165.32 69.5903C165.32 63.0676 168.268 59.0708 174.336 57.1779C175.004 56.9669 175.679 56.8055 176.571 56.5573C176.249 55.2043 175.952 53.9879 175.518 52.0888C174.862 53.2928 174.527 53.8948 174.119 54.6396C173.741 53.932 173.401 53.299 172.88 52.2688L171.822 54.3665L170.689 52.3184L169.45 54.3417C169.165 53.7831 168.881 53.2245 168.391 52.2502L167.153 54.6271L165.865 52.1943L164.98 54.6768C164.534 53.9196 164.206 53.3735 163.884 52.7963H163.878ZM95.149 88.5503H80.4931V106.368H95.1924L95.149 88.5503ZM109.588 88.5131V106.337H124.207V88.5131H109.588ZM138.696 106.362H153.475V88.5379H138.696V106.362ZM440.365 88.5503H425.504V106.399H440.173C440.247 105.717 440.346 105.226 440.346 104.73C440.352 99.467 440.346 94.2041 440.346 88.5503H440.365ZM402.124 56.6131C410.719 58.3571 413.759 64.0233 413.66 70.8316C413.356 91.9327 413.554 113.034 413.554 134.135C413.508 134.963 413.537 135.794 413.641 136.617C413.715 136.984 414.316 137.586 414.52 137.53C414.782 137.467 415.029 137.35 415.242 137.185C415.456 137.021 415.632 136.812 415.759 136.574C415.885 135.863 415.906 135.137 415.821 134.42V56.2221C415.821 55.3967 415.821 54.5651 415.721 53.7397C415.721 53.5038 415.449 53.2866 415.251 52.9825L414.266 54.9685C413.833 54.0065 413.542 53.3549 413.028 52.2626L411.951 54.6582L410.638 52.4177L409.635 54.534L408.397 52.4363L407.418 54.7078L406.081 52.306C405.672 53.4355 405.462 54.1058 405.096 55.043L403.703 52.2564L402.124 56.6131ZM314.381 73.0162C313.334 66.059 309.527 61.516 305.65 57.7054L297.923 64.3399C299.552 67.1389 300.889 69.5345 302.344 71.8618C302.522 72.147 302.757 72.3924 303.034 72.5825C303.311 72.7726 303.624 72.9033 303.954 72.9665C307.229 73.0658 310.505 73.0162 314.381 73.0162ZM167.871 106.586C170.195 106.676 172.522 106.647 174.843 106.499C175.267 106.362 175.65 106.12 175.954 105.794C176.258 105.468 176.475 105.07 176.583 104.637C176.738 99.8953 176.738 95.1413 176.583 90.3997C176.583 89.6984 175.58 88.5379 174.949 88.451C172.586 88.3011 170.218 88.2701 167.853 88.3579L167.871 106.586ZM304.499 55.856L289.775 45.1503L288.964 45.7709C288.964 49.8608 288.92 53.9507 289.013 58.0344C289.09 58.3628 289.231 58.6727 289.429 58.9455C289.626 59.2184 289.877 59.4488 290.165 59.6231C292.208 60.9885 294.32 62.2422 296.474 63.5765L304.499 55.856ZM271.255 57.6061C267.262 61.8574 263.348 66.2948 262.209 73.0162C266.048 73.0162 269.231 73.0596 272.407 72.9789C272.745 72.9641 273.077 72.8799 273.382 72.7315C273.686 72.5832 273.957 72.3737 274.178 72.1162C275.726 69.6338 277.131 67.0334 278.735 64.2219L271.255 57.6061ZM287.614 45.9819L286.747 45.3054L272.642 55.918L280.289 63.5144C282.252 62.2732 284.376 61.032 286.388 59.6356C286.702 59.4117 286.968 59.1263 287.169 58.7967C287.37 58.4671 287.502 58.1001 287.558 57.7178C287.67 53.8141 287.614 49.9042 287.614 45.9943V45.9819ZM314.3 86.5891V74.3319H302.815V86.6015L314.3 86.5891ZM301.081 74.3257H289.156V86.5147H301.056L301.081 74.3257ZM273.837 87.7807C270.271 87.7807 267.088 87.6752 263.93 87.8676C263.506 87.9878 263.12 88.2145 262.808 88.5262C262.496 88.8379 262.269 89.2243 262.147 89.6488C261.974 92.6377 261.974 95.6341 262.147 98.623C262.178 99.2436 263.051 100.386 263.584 100.417C266.946 100.578 270.314 100.497 273.862 100.497L273.837 87.7807ZM287.54 88.0414H275.62V100.249H287.533L287.54 88.0414ZM289.088 100.503C292.803 100.503 296.282 100.553 299.744 100.448C300.245 100.448 301.143 99.7277 301.155 99.3181C301.267 95.5943 301.223 91.8148 301.223 88.0352H289.088V100.503ZM302.777 100.541C306.226 100.541 309.496 100.64 312.746 100.454C313.166 100.322 313.545 100.085 313.848 99.766C314.152 99.4469 314.369 99.0557 314.48 98.6292C314.656 95.6425 314.656 92.6479 314.48 89.6612C314.443 89.0406 313.533 87.9359 312.982 87.9111C309.632 87.7497 306.263 87.8304 302.765 87.8304L302.777 100.541ZM273.819 86.6078V74.3195H262.271V86.5953L273.819 86.6078ZM275.534 74.276V86.5395H287.434V74.276H275.534ZM275.534 115.094C273.144 115.094 271.292 115.187 269.46 115.094C267.522 114.976 266.927 115.864 266.983 117.664C267.057 120.45 266.983 123.249 266.983 126.03C266.983 132.348 267.311 132.639 273.571 131.888C273.676 131.888 273.825 131.919 273.874 131.888C274.438 131.305 275.441 130.722 275.453 130.12C275.577 125.241 275.534 120.401 275.534 115.094ZM309.588 123.243C309.588 122.523 309.588 121.803 309.588 121.077C309.39 114.424 311.105 115.107 303.161 115.1C303.062 115.1 302.914 115.063 302.858 115.1C302.239 115.721 301.137 116.342 301.112 117C300.963 121.344 300.994 125.657 301.112 129.989C301.167 130.355 301.308 130.703 301.524 131.004C301.739 131.305 302.022 131.551 302.35 131.721C307.254 133.334 309.564 131.659 309.564 126.632L309.588 123.243ZM286.79 131.144C286.79 127.687 286.84 124.081 286.79 120.481C286.691 114.548 288.029 115.181 281.051 115.069C279.119 115.069 278.524 115.808 278.574 117.633C278.673 120.208 278.574 122.796 278.574 125.378C278.574 132.596 278.778 132.77 286.004 131.652C286.288 131.508 286.557 131.338 286.809 131.144H286.79ZM297.936 123.752C297.936 122.616 297.936 121.48 297.936 120.345C297.799 114.561 299.081 115.194 292.363 115.069C290.45 115.032 289.812 115.765 289.855 117.595C289.936 121.003 289.855 124.422 289.855 127.817C289.855 131.876 289.855 131.876 293.929 131.876C298.004 131.876 297.917 131.876 297.923 127.774C297.966 126.433 297.96 125.092 297.96 123.752H297.936ZM384.886 130.579C379.357 130.579 374.045 130.542 368.738 130.647C368.249 130.647 367.42 131.597 367.364 132.161C367.19 134.06 367.302 135.991 367.302 138.026H384.886V130.579ZM193.802 138.001H211.053V130.759H193.802V138.001ZM138.516 128.785C138.428 131.123 138.457 133.463 138.603 135.798C138.739 136.213 138.978 136.587 139.297 136.885C139.617 137.182 140.006 137.393 140.429 137.499C144.219 137.66 148.027 137.641 151.822 137.499C152.441 137.499 153.519 136.63 153.587 136.071C153.785 134.128 153.785 132.169 153.587 130.225C153.474 129.884 153.276 129.578 153.011 129.336C152.747 129.094 152.425 128.923 152.076 128.841C147.68 128.736 143.296 128.785 138.504 128.785H138.516ZM80.4931 137.561C85.0379 137.561 89.3288 137.623 93.6135 137.486C94.0019 137.382 94.3574 137.18 94.6466 136.9C94.9358 136.62 95.1492 136.271 95.2667 135.885C95.471 134.045 95.471 132.189 95.2667 130.349C95.1734 129.999 94.9934 129.677 94.7434 129.415C94.4934 129.152 94.1815 128.957 93.8364 128.847C89.4526 128.729 85.0688 128.779 80.4869 128.779L80.4931 137.561ZM110.003 137.561C114.201 137.561 118.579 137.561 122.956 137.53C123.39 137.53 124.195 137.12 124.195 136.909C124.287 134.464 124.504 131.944 124.065 129.592C123.972 129.089 121.384 128.971 119.928 128.829C118.691 128.766 117.451 128.766 116.213 128.829C108.461 128.829 108.437 128.829 109.533 136.748C109.659 137.028 109.815 137.294 109.997 137.542L110.003 137.561ZM425.473 137.561C430.049 137.561 434.253 137.623 438.476 137.499C439.095 137.499 440.216 136.636 440.278 136.084C440.485 134.136 440.485 132.172 440.278 130.225C440.161 129.882 439.96 129.574 439.693 129.33C439.425 129.085 439.1 128.913 438.749 128.829C434.371 128.717 429.993 128.767 425.486 128.767L425.473 137.561ZM240.402 142.656V143.407H337.965C337.965 143.159 337.965 142.904 337.965 142.656H240.402ZM240.637 144.772L240.606 145.393H337.668V144.772H240.637ZM240.606 146.392V147.391C272.948 147.391 305.287 147.391 337.625 147.391V146.411L240.606 146.392ZM240.402 148.254V149.005H337.947V148.254H240.402ZM289.211 60.5355V72.7493H301.304C299.118 66.5989 294.536 63.5641 289.211 60.5355ZM287.62 61.0568C282.239 62.298 275.998 68.678 275.905 73.0286C279.187 73.0286 282.469 73.1403 285.725 72.9355C286.4 72.892 287.49 71.6942 287.533 70.9309C287.738 67.7657 287.62 64.5757 287.62 61.0568ZM411.028 137.393C411.412 127.147 412.7 128.704 402.935 128.928C402.855 128.928 402.775 129.052 402.471 129.3V137.368L411.028 137.393ZM74.58 48.2161L74.3261 48.5947H175.623V48.2161H74.58ZM449.262 47.341V46.5342H402.985V47.341H449.262ZM289.156 112.73C292.084 112.73 294.728 112.903 297.354 112.612C298.022 112.537 298.994 110.992 298.988 110.129C298.988 109.105 298.165 107.281 297.527 107.2C294.84 106.871 292.084 107.063 289.156 107.063V112.73ZM300.412 107.032V112.755C302.629 112.755 304.561 112.668 306.48 112.755C308.53 112.866 309.663 112.494 309.7 109.98C309.737 107.368 308.647 106.821 306.406 106.983C304.474 107.138 302.542 107.032 300.394 107.032H300.412ZM276.209 107.032C273.534 107.032 271.187 107.032 268.847 107.032C266.723 107.032 266.81 108.59 267.07 109.825C267.292 110.868 268.066 112.494 268.779 112.599C271.156 112.947 273.62 112.73 276.209 112.73V107.032ZM278.029 112.512H287.372V107.305H278.01L278.029 112.512ZM449.559 48.663L449.454 48.1479H402.818V48.663H449.559ZM218.378 36.7408V36.3498H186.242V36.7408H218.378ZM360.169 36.3871V36.7533H392.317V36.3871H360.169Z" fill="#00A3FF"/>
<path d="M28.4204 126.7H20.9903C20.9283 125.459 20.8169 124.36 20.8169 123.249C20.8169 104.85 20.8169 86.4504 20.8169 68.0511C20.8169 64.3274 22.5506 61.4725 24.6744 61.5842C26.7981 61.6959 28.4637 64.6253 28.4637 68.2063C28.4637 86.6056 28.4637 105.005 28.4637 123.404L28.4204 126.7ZM27.9993 98.6353C27.9993 95.9542 27.9436 93.2731 27.9993 90.5672C28.0551 88.5999 27.2935 87.7248 25.2688 87.8613C23.3555 87.9855 21.0274 87.4269 20.9779 90.4121C20.8912 95.8797 20.8726 101.354 20.9779 106.815C21.0584 109.887 23.5908 108.677 25.213 108.857C26.8353 109.037 28.086 108.857 27.987 106.66C27.9127 104.004 27.9993 101.316 27.9993 98.6353Z" fill="#00A3FF"/>
<path d="M53.1937 126.768H45.3921V123.77C45.3921 105.259 45.3921 86.7503 45.3921 68.2434C45.3921 64.5755 47.3363 61.3669 49.4229 61.5283C51.5096 61.6897 53.1937 64.6314 53.1937 68.2434C53.1937 86.6469 53.1937 105.059 53.1937 123.479V126.768ZM45.8193 98.3249C45.8193 101.105 45.906 103.911 45.8193 106.666C45.7264 109.093 47.3053 109.031 48.9152 108.894C50.5251 108.758 52.6303 109.732 52.6303 106.747C52.6303 101.292 52.6303 95.83 52.6303 90.3748C52.6303 87.7123 50.9275 87.8923 49.101 87.8923C47.1444 87.8923 45.6212 88.0288 45.7512 90.623C45.8812 93.2172 45.8193 95.7556 45.8193 98.3249Z" fill="#00A3FF"/>
<path d="M494.586 126.681H487.255C487.174 125.626 487.026 124.546 487.026 123.466C487.026 105.171 487.026 86.8726 487.026 68.5725C487.026 67.4492 486.871 66.0901 487.434 65.2522C488.394 63.8558 489.868 62.8132 491.15 61.6216C492.338 63.0366 493.558 64.4206 494.691 65.879C494.896 66.1397 494.741 66.6859 494.741 67.1203C494.741 86.3471 494.741 105.574 494.741 124.801C494.722 125.291 494.642 125.806 494.586 126.681ZM494.289 108.485C494.289 102.508 494.19 96.637 494.338 90.7722C494.406 88.06 492.995 87.9235 490.896 87.849C488.524 87.7559 487.565 88.4697 487.657 90.9521C487.818 95.2965 487.701 99.6408 487.701 103.942C487.701 109.267 487.701 109.273 492.964 108.857C493.414 108.765 493.857 108.64 494.289 108.485Z" fill="#00A3FF"/>
<path d="M469.955 126.669H462.754V91.2935H462.927C462.927 95.7806 462.927 100.261 462.927 104.749C462.927 109.025 462.927 109.025 467.156 108.901C467.776 108.901 468.395 108.795 469.528 108.69V99.2064C469.528 96.6246 469.361 94.0242 469.571 91.4611C469.807 88.5441 468.636 87.5015 465.856 87.8925C464.866 88.0352 463.844 88.0104 462.581 88.0725C462.581 80.656 462.513 73.2396 462.618 65.8294C462.649 63.4959 464.321 61.4416 466.382 61.8512C467.794 62.1305 469.701 64.613 469.776 66.1956C470.135 73.643 469.943 81.0905 469.943 88.5007L469.955 126.669Z" fill="#00A3FF"/>
</g>
<defs>
<clipPath id="clip0">
<rect width="517" height="225" fill="white"/>
</clipPath>
</defs>
</svg>
