<svg width="256" height="256" viewBox="0 0 256 256" fill="none" xmlns="http://www.w3.org/2000/svg">
<path d="M92.3 168.056C92.3 128.856 92.3 90.1562 92.3 51.1562C124.2 51.1562 155.7 51.1562 187.7 51.1562C187.7 90.0563 187.7 128.956 187.7 168.056C155.9 168.056 124.4 168.056 92.3 168.056ZM99.0001 109.556C99.0001 120.756 99.1001 131.856 99.0001 143.056C99.0001 146.156 99.6001 147.956 103.2 148.356C107.4 148.856 110.2 151.756 110.8 155.856C111.2 159.056 112.5 160.056 115.6 160.056C131.9 159.956 148.3 160.156 164.6 159.856C166.1 159.856 168.5 157.856 168.8 156.456C170 151.656 172.7 149.156 177.5 147.956C178.9 147.656 180.7 145.456 180.7 144.056C180.9 121.056 180.9 98.0562 180.7 75.0562C180.7 73.6562 178.6 71.4562 177.1 71.0562C172.5 69.8562 170.1 67.1563 168.8 62.7563C168.4 61.2563 166.1 59.2563 164.7 59.2563C148.2 59.0563 131.7 59.0563 115.2 59.2563C113.8 59.2563 111.6 61.2563 111.1 62.7563C109.9 67.0563 107.7 70.2563 103.3 70.8563C99.3 71.3563 99.0001 73.4562 99.0001 76.6562C99.1001 87.5562 99.0001 98.5563 99.0001 109.556Z" fill="#F8F8F8"/>
<path d="M86.7 51.456C86.7 90.156 86.7 128.856 86.7 168.356C79.1 167.756 72.6 169.756 68.3 178.156C68.1 175.656 68 174.656 68 173.556C68 137.756 68 101.956 68 66.156C68 55.156 75.5 49.256 86.7 51.456Z" fill="#F8F8F8"/>
<path d="M139.6 185.256C139.6 187.856 139.6 189.756 139.6 191.956C138.1 192.156 136.8 192.356 135.5 192.356C118.4 192.356 101.2 192.456 84.1 192.256C81.4 192.256 77.8 191.656 76.3 189.956C74.3 187.556 72.8 183.656 73.3 180.756C73.8 178.156 77.1 175.856 79.5 173.856C80.5 173.056 82.4001 173.356 83.9001 173.356C117.4 173.356 150.8 173.356 184.3 173.356C185.3 173.356 186.3 173.456 187.8 173.556C187.9 175.556 188 177.456 188.1 180.056C186 180.156 184.1 180.356 182.2 180.356C150.9 180.356 119.6 180.356 88.3 180.356C87.6 180.356 86.9 180.156 86.3 180.356C84.2 181.056 82.1 181.956 80.1 182.756C82.1 183.556 84.2001 185.056 86.2001 185.056C103.8 185.356 121.4 185.256 139.6 185.256Z" fill="#F8F8F8"/>
<path d="M168.7 185.656C168.7 190.956 168.8 196.156 168.7 201.256C168.6 204.356 166.9 205.156 164.4 203.556C161.9 201.956 159.6 200.056 156.9 198.056C154.4 199.856 151.9 201.756 149.3 203.456C146.8 205.056 145.1 204.456 145 201.356C144.9 196.256 145 191.156 145 185.656C152.9 185.656 160.5 185.656 168.7 185.656Z" fill="#F8F8F8"/>
<path d="M173.7 191.956C173.7 189.656 173.7 187.856 173.7 185.656C178.4 185.656 182.9 185.656 187.8 185.656C187.8 187.656 187.8 189.556 187.8 191.956C183.2 191.956 178.7 191.956 173.7 191.956Z" fill="#F8F8F8"/>
<path d="M163.8 155.056C148.6 155.056 133.5 155.156 118.3 154.956C117.1 154.956 115.9 153.356 114.9 152.356C112.4 149.856 110.4 146.456 107.4 144.756C104.8 143.256 103.9 141.956 103.9 139.156C104 119.456 104 99.8559 103.9 80.1559C103.9 77.4559 104.5 75.9559 107.2 74.4559C110.2 72.7559 112.2 69.4559 114.8 66.9559C116 65.7559 117.6 64.1559 119 64.1559C132.8 63.9559 146.7 63.9559 160.5 64.1559C162 64.1559 163.6 65.7559 164.8 66.9559C167.5 69.4559 169.7 72.7559 172.8 74.7559C174.9 76.1559 175.9 77.0559 175.9 79.5559C175.8 99.7559 175.9 119.856 175.8 140.056C175.8 141.356 174.8 143.456 173.8 143.856C168.6 145.756 165.7 149.756 163.8 155.056ZM140.1 76.3559C139 77.1559 137.9 77.4559 137.4 78.2559C133 84.2559 127.1 86.5559 119.7 85.5559C116.6 85.1559 115.5 87.2559 115.9 89.9559C117 96.8559 114.8 102.256 109.2 106.356C106.5 108.356 106.1 110.656 109.1 112.756C114.8 116.856 116.9 122.256 115.9 129.056C115.4 132.556 117.2 134.156 120.5 133.656C127.4 132.656 132.8 134.856 136.9 140.456C138.8 143.156 141.1 142.956 143 140.356C147 134.956 152.1 132.556 158.9 133.656C162.8 134.256 164.6 132.356 164.1 128.456C163.1 121.956 165.1 116.756 170.5 112.956C173.9 110.556 173.3 108.056 170.3 105.856C165.4 102.156 163 97.5559 164.1 91.2559C164.9 86.6559 162.7 84.6559 158.2 85.3559C151.9 86.3559 147.3 84.0559 143.6 79.1559C142.6 78.0559 141.2 77.3559 140.1 76.3559Z" fill="#F8F8F8"/>
<path d="M120.2 129.456C122.5 120.156 119.2 114.256 112.1 109.456C119.4 104.756 122.4 98.7557 120.5 90.0557C129 91.5557 135.3 89.2557 139.9 81.5557C144.6 89.1557 150.7 91.7557 159.6 89.7557C157.6 98.4557 160.1 104.856 167.9 109.456C160.3 114.056 157.7 120.256 159.5 128.456C155.2 128.656 151.3 127.956 148.2 129.256C145.1 130.556 142.7 133.856 139.6 136.656C135.2 130.256 129.4 126.956 120.2 129.456ZM140.4 124.556C145.6 124.656 149.8 122.556 152.8 118.356C153.5 117.356 154 115.556 153.6 114.356C153.4 113.656 151.4 113.256 150.2 113.156C141.5 112.756 137.5 107.556 139.4 99.2557C139.7 97.9557 139.4 96.5557 139.3 95.1557C137.7 95.2557 136 94.8557 134.6 95.3557C128.2 97.7557 124.2 105.256 125.5 111.956C127.2 119.356 133.2 124.456 140.4 124.556Z" fill="#F8F8F8"/>
<path d="M133.8 102.356C134.3 110.356 138.3 115.156 145.1 117.956C140.3 120.656 135.5 119.656 132.5 115.756C129.4 111.656 129.8 106.756 133.8 102.356Z" fill="#F8F8F8"/>
</svg>
