<svg width="256" height="263" viewBox="0 0 256 263" fill="none" xmlns="http://www.w3.org/2000/svg">
<path d="M127.805 52.3945C129.205 53.0109 130.505 53.5246 131.605 54.141C152.105 64.7227 172.705 75.2016 193.205 85.7832C194.705 86.6051 195.905 88.0434 197.205 89.1734C196.005 90.4063 194.905 91.9473 193.405 92.7691C172.905 103.454 152.305 113.932 131.905 124.514C129.005 126.055 126.505 126.158 123.505 124.617C103.105 114.035 82.5049 103.556 62.0049 92.8719C60.5049 92.1527 59.5049 90.509 58.3049 89.2762C59.5049 88.1461 60.5049 86.7078 61.8049 86.0914C82.4049 75.407 103.105 64.7227 123.805 54.141C125.105 53.5246 126.505 53.0109 127.805 52.3945Z" fill="#F8F8F8"/>
<path d="M58.1049 125.028C70.6049 131.397 82.1049 137.356 93.7049 143.212C103.205 148.04 112.805 152.869 122.205 157.903C123.505 158.622 125.205 160.471 125.205 161.807C125.405 172.902 125.305 183.895 125.305 195.914C119.205 192.832 113.805 189.956 108.305 187.182C92.8049 179.271 77.3049 171.361 61.9049 163.348C60.3049 162.526 58.2049 160.471 58.1049 158.827C57.9049 148.04 58.1049 137.15 58.1049 125.028Z" fill="#F8F8F8"/>
<path d="M197.305 125.747C197.305 136.739 197.405 147.527 197.205 158.314C197.205 159.752 196.005 161.909 194.805 162.628C189.805 165.505 184.505 168.073 178.305 171.155C178.305 165.3 178.305 160.163 178.305 154.923C178.205 149.17 177.105 148.451 172.205 150.917C165.805 154.204 159.405 157.594 153.005 160.677C150.405 161.909 149.005 163.553 149.405 166.532C149.505 167.046 149.405 167.56 149.405 168.073C149.205 174.032 151.305 181.634 148.405 185.436C144.805 190.367 137.205 192.113 130.205 195.914C130.205 191.086 130.205 187.079 130.205 183.175C130.205 176.292 130.105 169.512 130.305 162.628C130.405 161.087 131.405 158.827 132.605 158.211C153.605 147.218 174.805 136.431 195.905 125.541C196.005 125.644 196.405 125.747 197.305 125.747Z" fill="#F8F8F8"/>
<path d="M196.905 97.084C197.805 105.919 197.805 105.919 190.905 109.515C172.305 119.069 153.805 128.623 135.205 138.075C133.805 138.794 132.305 139.411 130.705 140.13C129.305 131.5 129.305 131.5 136.305 128.007C155.005 118.35 173.705 108.796 192.505 99.1387C193.905 98.4195 195.405 97.8031 196.905 97.084Z" fill="#F8F8F8"/>
<path d="M58.605 96.8783C77.4049 106.536 95.6049 115.884 113.905 125.233C115.505 126.055 117.205 126.877 118.805 127.802C125.805 131.295 125.805 131.295 124.905 140.438C121.905 138.897 119.205 137.561 116.405 136.123C99.0049 127.185 81.6049 118.247 64.2049 109.309C57.4049 105.816 57.405 105.816 58.605 96.8783Z" fill="#F8F8F8"/>
<path d="M130.705 153.382C129.205 148.246 130.705 145.677 134.905 143.623C154.205 134.068 173.305 124.103 192.405 114.241C193.805 113.521 195.305 112.802 196.805 112.083C198.405 117.425 196.505 119.994 192.005 122.254C172.705 131.808 153.605 141.773 134.505 151.636C133.305 152.252 132.105 152.766 130.705 153.382Z" fill="#F8F8F8"/>
<path d="M124.805 153.588C116.605 149.478 108.505 145.266 100.405 141.157C87.8049 134.685 75.5049 128.007 62.8049 121.946C58.4049 119.788 57.2049 117.22 58.7049 112.186C65.1049 115.473 71.2049 118.555 77.4049 121.74C91.8049 129.034 106.005 136.637 120.405 143.623C124.805 145.78 126.405 148.348 124.805 153.588Z" fill="#F8F8F8"/>
<path d="M154.305 183.484C154.305 177.833 154.205 173.21 154.405 168.587C154.505 167.354 155.305 165.505 156.305 164.889C161.605 161.909 167.205 159.238 173.405 155.951C173.405 161.601 173.505 166.532 173.305 171.361C173.305 172.491 172.405 174.032 171.505 174.546C166.105 177.628 160.605 180.299 154.305 183.484Z" fill="#F8F8F8"/>
<path d="M139.705 197.147C140.605 205.982 140.605 205.982 130.905 209.578C129.005 201.873 129.405 201.257 139.705 197.147Z" fill="#F8F8F8"/>
<path d="M187.705 180.299C187.105 171.361 187.605 170.745 197.005 167.971C197.905 176.498 197.505 177.011 187.705 180.299Z" fill="#F8F8F8"/>
<path d="M145.405 202.079C144.305 193.346 144.605 193.038 153.805 190.059C155.005 198.38 154.805 198.586 145.405 202.079Z" fill="#F8F8F8"/>
<path d="M125.105 209.784C115.005 206.291 114.705 205.982 115.705 197.558C125.005 199.921 125.605 200.846 125.105 209.784Z" fill="#F8F8F8"/>
<path d="M67.705 180.196C57.805 176.909 57.305 176.189 58.605 168.176C67.705 170.539 68.505 171.566 67.705 180.196Z" fill="#F8F8F8"/>
<path d="M73.605 175.676C82.605 178.758 82.605 178.758 81.805 186.977C73.605 186.052 71.905 183.689 73.605 175.676Z" fill="#F8F8F8"/>
<path d="M182.105 175.47C182.705 184.305 182.705 184.305 174.005 187.388C172.305 179.682 172.805 178.861 182.105 175.47Z" fill="#F8F8F8"/>
<path d="M87.4049 182.456C97.8049 187.285 96.3049 185.744 95.8049 194.168C87.9049 193.141 86.5049 191.291 87.4049 182.456Z" fill="#F8F8F8"/>
<path d="M109.905 201.873C100.905 198.996 100.505 198.38 101.605 190.264C110.405 192.421 111.105 193.449 109.905 201.873Z" fill="#F8F8F8"/>
<path d="M167.905 182.867C168.905 191.394 168.405 192.113 159.805 194.373C158.505 186.36 159.105 185.538 167.905 182.867Z" fill="#F8F8F8"/>
</svg>
