<svg width="256" height="256" viewBox="0 0 256 256" fill="none" xmlns="http://www.w3.org/2000/svg">
<path d="M150.1 62.2317C151.8 63.9317 153 65.2317 155.4 67.6317C157 65.4317 158.4 63.1317 160.3 61.3317C161 60.6317 162.8 61.0317 164.1 60.9317C163.9 62.1317 164.1 63.6317 163.4 64.3317C161.6 66.2317 159.4 67.7317 156.9 69.9317C159.2 72.1317 160.6 73.5317 163.3 76.1317C165 73.7317 166.2 71.4317 168 69.7317C168.9 68.9317 170.8 69.1317 172.2 68.9317C171.9 70.2317 172.1 71.9317 171.3 72.7317C169.6 74.5317 167.5 75.9317 165.2 77.6317C167.4 79.9317 168.7 81.3317 171.4 84.1317C173.1 81.7317 174.3 79.4317 176.1 77.7317C177 76.9317 178.9 77.1317 180.3 76.8317C180 78.2317 180 80.0317 179.2 81.0317C177.7 82.8317 175.7 84.1317 173.6 85.8317C175.7 88.0317 177.1 89.4317 179.3 91.7317C181.3 89.3317 182.8 87.1317 184.8 85.3317C185.5 84.6317 187.1 84.9317 188.3 84.7317C188.2 86.0317 188.5 87.8317 187.8 88.5317C186 90.4317 183.7 91.8317 180.8 94.0317C183.6 96.2317 185.2 97.4317 186.7 98.6317C187.1 99.1317 187.6 99.6317 188 100.132C189.6 97.8317 191.1 95.4317 193 93.3317C193.6 92.7317 195.3 93.0317 196.4 92.9317C196.3 94.1317 196.7 95.7317 196.1 96.4317C194.4 98.4317 192.2 100.032 189.4 102.532C191.6 104.332 193.2 105.632 195.6 107.632C197.3 105.532 198.8 103.332 200.7 101.432C201.4 100.732 203 100.932 204.2 100.832C204.1 102.132 204.6 103.932 203.9 104.632C202.1 106.532 199.7 107.932 197.1 109.932C203.5 114.332 201.4 117.232 197.9 120.632C172 146.332 146.2 172.132 120.5 198.032C117.1 201.432 114.3 203.832 110.5 198.432C108.3 200.532 106.5 202.532 104.4 204.132C103.6 204.732 102.1 204.532 100.9 204.732C101 203.432 100.6 201.632 101.3 200.832C103 198.832 105.3 197.332 107.7 195.332C105.4 193.232 104 192.132 102.3 190.532C100.7 192.032 99.2 193.832 97.3 195.032C96 195.932 94.2 196.032 92.7 196.532C93.1 195.032 93 193.032 94 192.032C95.6 190.432 97.8 189.432 100.5 187.732C97.2 185.332 95.7 184.232 93.7 182.732C92.2 184.232 90.3 186.232 88.1 187.932C87.3 188.532 85.8 188.332 84.6 188.532C84.7 187.232 84.3 185.532 85 184.632C86.6 182.732 88.7 181.332 91 179.432C89.1 177.332 87.8 175.832 86.2 174.032C84 176.132 82.1 178.132 79.9 179.832C79.1 180.432 77.6 180.132 76.4 180.232C76.5 179.032 76.1 177.532 76.6 176.732C78.2 174.632 80.2 172.832 82.4 170.532C81 169.032 79.6 167.632 77.4 165.232C75.5 167.432 74 169.732 72.1 171.432C71.3 172.232 69.6 171.932 68.3 172.232C68.5 170.932 68.2 169.232 68.9 168.432C70.5 166.532 72.6 165.132 75.1 162.932C72.8 161.132 71.2 159.832 68.6 157.732C67.2 159.432 65.8 161.732 63.8 163.532C63.1 164.232 61.3 163.832 60 163.932C60.1 162.732 59.8 161.132 60.5 160.432C62.3 158.432 64.4 156.832 67.3 154.432C64.8 152.932 63.1 151.832 60.3 150.132C59.3 151.332 57.9 153.532 55.9 155.232C55.1 155.932 53.4 155.732 52 155.932C52.2 154.632 51.9 152.932 52.6 152.132C54.2 150.232 56.3 148.832 58 147.332C54 140.832 54 140.832 59 135.832C84.7 110.132 110.4 84.5317 136 58.7317C139.3 55.4317 142 53.2317 145.6 58.5317C146.8 57.5317 147.7 56.5317 148.8 55.8317C150.9 54.4317 151.9 50.2317 155.4 52.8317C155.7 53.0317 153.6 56.9317 152.4 59.0317C152.1 60.3317 151 61.2317 150.1 62.2317ZM116.1 98.3317C111 101.032 106.5 102.432 103.4 105.332C94.6 113.432 86.2 122.032 78 130.732C77 131.832 76.6 134.732 77.4 136.032C79.6 139.932 80 143.632 77.3 147.232C75.4 149.732 76.3 151.332 78.2 153.232C87 161.932 95.7 170.632 104.3 179.332C106.2 181.232 107.5 181.432 110.2 180.232C113.2 179.032 117.6 178.632 120.3 179.932C123.7 181.632 125.3 180.832 127.5 178.632C135.2 170.832 143.2 163.232 150.6 155.232C153.4 152.232 154.8 147.932 157 144.232C157.7 143.032 158.6 141.432 159.8 140.932C168.3 137.732 172.2 132.332 170.9 123.332C170 117.132 167.6 111.132 166.4 105.032C165.7 101.632 166.2 98.0317 166.1 94.4317C166.1 93.5317 166.2 92.1317 165.7 91.7317C164.9 91.2317 163.7 91.3317 162.6 91.3317C159.6 91.3317 156.4 91.9317 153.5 91.2317C148 90.0317 142.7 87.7317 137.2 86.6317C125.4 84.3317 118.9 88.4317 116.1 98.3317Z" fill="#F8F8F8"/>
<path d="M159.3 98.0316C160.5 102.332 161.7 106.332 162.8 110.332C163.9 114.632 165.4 119.032 165.9 123.432C166.9 131.832 163.7 135.232 155.4 136.432C154.2 136.632 152.2 138.732 152.2 139.932C152.4 145.232 150.2 149.132 146.5 152.632C139.7 159.232 133 165.932 126.4 172.732C124.4 174.832 122.8 175.132 120 174.232C117.2 173.332 113.6 173.332 110.9 174.232C108 175.232 106.5 174.732 104.5 172.732C97.8 165.832 90.8 159.132 84.2 152.132C83.2 151.032 83.1 148.832 83.1 147.132C83.1 144.032 84.3 140.632 83.3 137.932C82.1 134.332 82.7 132.432 85.3 129.932C92.1 123.532 98.6 116.932 105.1 110.232C108.4 106.832 112.2 104.632 117 105.132C120 105.432 121.1 104.232 121.2 101.232C121.4 94.3316 124.7 91.1316 131.5 91.3316C135.3 91.4316 139.1 92.2316 142.8 93.2316C148.4 94.5316 153.9 96.3316 159.3 98.0316Z" fill="#F8F8F8"/>
</svg>
