<svg width="256" height="256" viewBox="0 0 256 256" fill="none" xmlns="http://www.w3.org/2000/svg">
<path d="M114 122H104C104.103 125.016 104.402 128.022 104.893 131L114 122Z" fill="#F8F8F8"/>
<path d="M102 95.9461C95.783 94.9688 89.6281 93.6513 83.5645 92C79.0212 99.2642 76.421 107.514 76 116H98.7207C98.9379 109.208 100.04 102.47 102 95.9461Z" fill="#F8F8F8"/>
<path d="M125 110.339V98.3099C119.016 98.2127 113.042 97.7754 107.107 97C105.257 103.171 104.213 109.558 104 116H119.38L125 110.339Z" fill="#F8F8F8"/>
<path d="M116 69C104.428 71.6998 94.1753 78.2649 87 87.5689C92.4349 89.0005 97.9441 90.1459 103.504 91C106.434 83.0544 110.654 75.6253 116 69Z" fill="#F8F8F8"/>
<path d="M125 93V67C124.485 67.0267 123.972 67.0652 123.46 67.1086C117.182 74.2878 112.272 82.6794 109 91.8241C114.31 92.5139 119.651 92.9064 125 93Z" fill="#F8F8F8"/>
<path d="M146 89.4575C142.555 81.2269 137.693 73.6629 131.633 67.1086C131.09 67.0649 130.546 67.0267 130 67V93C134.415 92.9276 138.846 92.6706 143.219 92.235L146 89.4575Z" fill="#F8F8F8"/>
<path d="M159 77.6736C153.327 73.5563 146.864 70.606 140 69C144.205 74.2198 147.736 79.9298 150.513 86L159 77.6736Z" fill="#F8F8F8"/>
<path d="M130 98.2715V105L138 98C135.336 98.1433 132.67 98.2338 130 98.2715Z" fill="#F8F8F8"/>
<path d="M98.2932 122H76C76.5139 132.109 80.0057 141.846 86.0417 150L100 136.133C99.0169 131.481 98.4458 126.751 98.2932 122Z" fill="#F8F8F8"/>
<path d="M169.852 88L97 160.411C104.513 165.935 113.392 169.332 122.692 170.241C126.155 170.582 129.642 170.582 133.105 170.241C133.824 170.171 134.557 170.082 135.346 169.97C135.715 169.917 136.092 169.944 136.45 170.049C136.808 170.154 137.139 170.334 137.421 170.577C137.703 170.82 137.929 171.12 138.084 171.458C138.239 171.795 138.319 172.162 138.319 172.533V182L157.35 161.508C157.476 161.372 157.617 161.25 157.769 161.144C168.869 153.422 176.507 141.707 179.064 128.482C181.62 115.257 178.894 101.562 171.464 90.3006C170.951 89.5238 170.414 88.7569 169.852 88ZM127.9 149.783C126.869 149.783 125.862 149.48 125.005 148.911C124.149 148.342 123.481 147.533 123.086 146.586C122.692 145.64 122.589 144.599 122.79 143.594C122.991 142.59 123.487 141.667 124.216 140.943C124.944 140.219 125.873 139.726 126.883 139.526C127.894 139.326 128.942 139.428 129.894 139.82C130.846 140.212 131.659 140.876 132.232 141.728C132.804 142.579 133.11 143.581 133.11 144.605C133.11 145.978 132.561 147.295 131.584 148.267C130.607 149.238 129.282 149.783 127.9 149.783ZM143.53 149.783C142.5 149.783 141.492 149.48 140.635 148.911C139.779 148.342 139.111 147.533 138.717 146.586C138.322 145.64 138.219 144.599 138.42 143.594C138.621 142.59 139.117 141.667 139.846 140.943C140.575 140.219 141.503 139.726 142.514 139.526C143.524 139.326 144.572 139.428 145.524 139.82C146.476 140.212 147.29 140.876 147.862 141.728C148.435 142.579 148.74 143.581 148.74 144.605C148.74 145.978 148.191 147.295 147.214 148.267C146.237 149.238 144.912 149.783 143.53 149.783ZM159.16 149.783C158.13 149.783 157.122 149.48 156.266 148.911C155.409 148.342 154.741 147.533 154.347 146.586C153.952 145.64 153.849 144.599 154.05 143.594C154.251 142.59 154.748 141.667 155.476 140.943C156.205 140.219 157.133 139.726 158.144 139.526C159.154 139.326 160.202 139.428 161.154 139.82C162.106 140.212 162.92 140.876 163.492 141.728C164.065 142.579 164.37 143.581 164.37 144.605C164.37 145.978 163.821 147.295 162.844 148.267C161.867 149.238 160.542 149.783 159.16 149.783Z" fill="#F8F8F8"/>
<path d="M71.5644 67.7554C59.3356 79.8008 51.7951 95.7663 50.2819 112.817C48.7688 129.867 53.3809 146.899 63.2994 160.889L61.103 160.565C60.7653 160.516 60.4211 160.533 60.09 160.615C59.7588 160.698 59.4473 160.844 59.1732 161.047C58.6196 161.455 58.2518 162.066 58.1508 162.744C58.0498 163.422 58.2239 164.112 58.6347 164.663C59.0455 165.214 59.6594 165.579 60.3414 165.68L69.114 166.972C69.4565 167.023 69.8058 167.004 70.1412 166.919C70.4766 166.833 70.7915 166.682 71.0672 166.473C71.343 166.265 71.574 166.004 71.7469 165.705C71.9198 165.407 72.031 165.077 72.0739 164.736L73.0486 156.981C73.1282 156.303 72.9354 155.622 72.5122 155.086C72.089 154.549 71.4697 154.2 70.7892 154.116C70.1087 154.031 69.4222 154.218 68.8793 154.634C68.3363 155.051 67.9808 155.664 67.8903 156.34L67.6707 158.085C58.3987 145.093 54.0682 129.249 55.4514 113.378C56.8346 97.5063 63.8416 82.6394 75.2229 71.4282C75.4669 71.1897 75.6612 70.9056 75.7945 70.5922C75.9279 70.2788 75.9977 69.9423 75.9999 69.602C76.0022 69.2618 75.9369 68.9244 75.8078 68.6093C75.6786 68.2942 75.4882 68.0075 75.2474 67.7658C75.0065 67.524 74.7201 67.3319 74.4045 67.2005C74.0888 67.0691 73.7502 67.001 73.4081 67C73.0659 66.999 72.7269 67.0653 72.4105 67.1949C72.0941 67.3245 71.8066 67.515 71.5644 67.7554Z" fill="#F8F8F8"/>
<path d="M190.353 75.1795H192.267C192.942 75.1795 193.59 74.9066 194.068 74.421C194.545 73.9353 194.814 73.2766 194.814 72.5897C194.814 71.9029 194.545 71.2442 194.068 70.7585C193.59 70.2728 192.942 70 192.267 70H184.627C183.951 70 183.304 70.2728 182.826 70.7585C182.348 71.2442 182.08 71.9029 182.08 72.5897V80.359C182.08 81.0458 182.348 81.7045 182.826 82.1902C183.304 82.6759 183.951 82.9487 184.627 82.9487C185.302 82.9487 185.95 82.6759 186.428 82.1902C186.905 81.7045 187.173 81.0458 187.173 80.359V79.505C196.452 92.4303 200.9 108.294 199.721 124.251C198.541 140.209 191.811 155.218 180.737 166.588C180.262 167.076 179.997 167.736 180 168.423C180.003 169.109 180.275 169.767 180.755 170.25C181.234 170.734 181.883 171.003 182.559 171C183.234 170.997 183.881 170.721 184.356 170.233C196.471 157.794 203.751 141.319 204.854 123.848C205.956 106.377 200.805 89.0902 190.353 75.1795Z" fill="#F8F8F8"/>
</svg>
