<svg width="256" height="256" viewBox="0 0 256 256" fill="none" xmlns="http://www.w3.org/2000/svg">
<path d="M104.023 97.1071L91.8379 106.56C90.2371 107.784 89.7805 109.999 90.7667 111.756L91.7576 113.577C94.9981 119.549 99.042 126.994 114.039 141.964C129.036 156.934 136.454 161.004 142.426 164.245L144.247 165.236C146.004 166.222 148.219 165.765 149.442 164.165L158.895 151.98C161.956 148.092 167.484 147.196 171.616 149.918L193.496 164.513C206.449 141.291 206.135 112.946 192.672 90.0169C179.208 67.0875 154.608 53.003 128.018 53.0001C115.228 52.9845 102.649 56.2584 91.4896 62.507L106.085 84.3863C108.809 88.5178 107.913 94.0479 104.023 97.1071Z" fill="#00A3FF"/>
<path d="M54.9882 110.983C53.683 116.557 53.0272 122.264 53.0334 127.989C53.0791 169.382 86.6241 202.927 128.018 202.973C133.743 202.979 139.449 202.323 145.023 201.018C130.562 194.377 113.423 182.486 93.4714 162.535C73.5202 142.584 61.6299 125.444 54.9882 110.983Z" fill="#00A3FF"/>
<path d="M201.181 176.055L195.156 172.038L190.683 169.065L168.643 154.363C166.847 153.189 164.45 153.584 163.127 155.274L153.673 167.432C150.834 171.143 145.7 172.204 141.622 169.923L139.881 168.959C133.588 165.531 125.795 161.273 110.262 145.74C94.7299 130.207 90.4718 122.415 87.0439 116.121L86.08 114.38C83.8038 110.308 84.8518 105.182 88.5436 102.329L100.729 92.876C102.418 91.552 102.813 89.1558 101.639 87.3594L91.7305 72.5233L86.9367 65.3195L83.964 60.8471L79.9477 54.8211C79.1794 53.6814 77.8941 52.9989 76.5197 53.0001C75.7819 52.996 75.0578 53.2001 74.431 53.5891L60.8266 61.7571C57.7341 63.5565 55.4594 66.4841 54.4796 69.9252C52.395 78.1392 52.515 86.7583 54.8278 94.9111C55.5217 97.6237 56.3621 100.297 57.3451 102.918C62.9689 117.835 74.8326 136.313 97.2477 158.728C119.663 181.143 138.168 193.007 153.084 198.657C155.706 199.64 158.379 200.481 161.091 201.175C169.244 203.487 177.863 203.608 186.077 201.523C189.518 200.543 192.446 198.268 194.245 195.176L202.413 181.572C203.54 179.699 202.998 177.271 201.181 176.055Z" fill="#00A3FF"/>
</svg>
