<svg width="256" height="256" viewBox="0 0 256 256" fill="none" xmlns="http://www.w3.org/2000/svg">
<path d="M164.55 186.825C155.25 184.625 148.85 189.025 143.25 195.725C141.95 197.225 140.45 198.625 139.05 200.025C132.35 206.525 124.15 206.625 117.25 200.125C113.95 197.025 111.15 193.425 107.55 190.725C104.95 188.825 101.55 187.425 98.2503 186.925C93.6503 186.325 88.9503 186.825 84.2503 186.725C75.0503 186.525 69.3503 180.625 69.2503 171.625C69.2503 171.325 69.2503 170.925 69.2503 170.625C69.0503 148.125 71.2503 154.725 56.4503 139.425C49.2503 132.025 49.1502 123.825 56.3502 116.525C71.5502 100.925 68.9503 107.525 69.2503 84.9253C69.3503 74.9253 75.0503 69.2253 85.0503 69.0253C108.05 68.7253 100.75 71.6253 117.05 55.9253C123.85 49.4253 132.05 49.3253 138.75 55.8253C155.35 71.8253 147.65 68.6253 171.15 69.0253C180.55 69.2253 186.35 74.8253 186.85 84.2253C187.05 88.9253 186.45 93.6253 187.05 98.2253C187.55 101.625 188.95 105.125 190.95 107.925C193.55 111.525 197.25 114.325 200.35 117.625C206.05 123.625 206.75 132.925 200.35 138.125C189.55 146.825 185.25 157.125 186.55 171.025C187.45 180.925 180.75 186.625 170.75 186.825C168.85 186.825 166.75 186.825 164.55 186.825ZM177.55 93.2253C177.55 91.2253 177.55 89.2253 177.55 87.2253C177.45 79.9253 176.25 78.1253 169.25 78.8253C154.65 80.4253 142.95 76.3253 133.85 64.3253C129.95 59.1253 126.75 59.1253 122.85 64.1253C113.55 75.9253 101.85 80.9253 86.9503 78.7253C86.6503 78.7253 86.2503 78.7253 85.9503 78.7253C80.4503 78.8253 78.7503 80.3253 78.6503 85.8253C78.2503 107.625 81.8503 105.725 63.0503 123.625C59.8503 126.725 60.1503 129.625 63.2503 132.625C66.3503 135.625 69.3503 138.825 72.4503 141.825C76.6503 145.825 78.7503 150.725 78.6503 156.525C78.5503 160.825 78.6503 165.225 78.6503 169.525C78.7503 175.825 80.1503 177.225 86.2503 177.325C90.2503 177.325 94.2503 177.325 98.2503 177.325C104.95 177.225 110.55 179.525 115.15 184.525C117.95 187.625 120.95 190.425 123.95 193.325C126.75 196.025 129.55 195.925 132.25 193.225C134.95 190.525 137.75 187.925 140.35 185.125C145.35 179.525 151.55 177.025 159.05 177.325C163.25 177.525 167.35 177.325 171.55 177.325C175.45 177.325 177.35 175.225 177.45 171.425C177.55 169.225 177.65 167.025 177.45 164.925C176.05 153.225 180.05 144.125 189.05 136.325C198.05 128.525 197.85 127.725 188.85 119.425C180.95 112.225 175.45 104.425 177.55 93.2253Z" fill="#00A3FF"/>
<path d="M173.45 82.6252C169.45 102.425 175.15 116.925 191.95 127.925C175.45 138.825 169.35 153.525 173.35 173.125C153.95 169.425 139.15 174.825 128.15 191.825C117.15 175.025 102.25 169.325 82.7502 173.225C86.7502 153.625 81.1502 138.925 64.2502 128.025C81.0502 117.125 86.7502 102.425 83.0502 84.5251C92.3502 83.5251 101.35 84.3252 108.85 81.3252C116.15 78.3252 121.95 71.5252 129.05 65.8252C139.05 80.9252 153.65 86.7252 173.45 82.6252ZM148.55 146.325C136.15 146.825 124.45 139.125 120.15 127.325C116.65 117.525 118.15 108.325 124.15 99.8252C124.95 98.6252 125.05 96.9252 125.55 95.4252C124.05 95.2252 122.45 94.8252 120.95 94.7252C120.15 94.7252 119.35 95.1252 118.55 95.3252C102.75 100.225 92.4502 115.925 94.7502 131.925C97.0502 148.425 110.95 161.125 127.45 161.625C137.45 161.925 146.05 158.425 153.05 151.225C153.95 150.325 154.15 148.625 154.65 147.325C153.35 146.925 152.05 146.325 150.65 146.025C149.95 146.025 149.25 146.225 148.55 146.325ZM134.55 128.125C134.65 131.625 136.25 133.025 139.05 131.225C143.55 128.125 147.55 128.125 152.15 131.225C155.15 133.225 157.25 131.225 156.25 127.925C154.65 122.725 156.15 119.125 160.15 115.825C162.85 113.625 162.15 111.125 158.55 110.825C153.35 110.525 149.95 108.625 148.15 103.425C147.15 100.325 144.45 99.4252 142.95 103.125C140.95 108.225 137.75 110.725 132.25 110.825C129.15 110.925 127.85 113.325 130.45 115.425C134.85 119.025 136.95 122.925 134.55 128.125Z" fill="#00A3FF"/>
<path d="M145.55 151.625C134.05 158.125 123.55 158.725 113.25 152.525C102.95 146.225 98.2503 136.525 99.5503 124.625C100.65 113.925 106.65 106.425 116.75 101.325C106.05 128.825 123.85 148.625 145.55 151.625Z" fill="#00A3FF"/>
<path d="M141.25 123.525C140.45 121.125 139.55 118.225 138.65 115.425C140.55 114.125 143.05 112.325 145.55 110.625C147.45 112.025 149.85 113.825 152.35 115.725C151.55 117.825 150.55 120.725 149.45 123.525C147.25 123.525 144.25 123.525 141.25 123.525Z" fill="#00A3FF"/>
</svg>
