<svg width="256" height="256" viewBox="0 0 256 256" fill="none" xmlns="http://www.w3.org/2000/svg">
<path d="M180.6 127.975C180.6 148.775 180.6 169.575 180.6 190.475C180.6 200.475 176.3 204.675 166.3 204.675C140.7 204.675 115 204.675 89.4 204.675C79.3 204.675 75 200.475 75 190.575C75 148.775 75 106.975 75 65.175C75 55.875 79.4 51.175 88.6 51.075C114.7 50.975 140.9 50.975 167 51.075C176.2 51.075 180.7 55.875 180.7 65.175C180.7 85.975 180.7 106.975 180.6 127.975ZM139.8 70.175C133.3 70.175 126.7 69.975 120 70.275C116.3 70.475 114.3 69.375 114.1 65.575C113.8 61.275 111.3 60.175 107.3 60.375C101.6 60.675 96 60.775 90.3 60.375C85.5 60.075 84.4 61.975 84.4 66.475C84.5 107.275 84.6 148.175 84.4 188.975C84.4 194.075 86 195.475 91 195.475C115.3 195.275 139.7 195.375 164 195.375C171 195.375 171 195.375 171 188.475C171 155.675 171 122.775 171 89.975C171 81.975 170.8 73.975 171.1 65.975C171.2 61.975 170 60.075 165.7 60.375C161.7 60.675 157.7 60.475 153.7 60.475C143.5 60.475 143.5 60.475 139.8 70.175ZM128 60.575C125.7 60.575 123.3 60.375 121.1 60.675C120.1 60.875 119.3 62.175 118.4 62.975C119.2 63.875 120 65.375 120.9 65.375C125.5 65.575 130.2 65.575 134.8 65.375C135.7 65.375 136.5 63.775 137.3 62.875C136.4 62.075 135.5 60.775 134.5 60.675C132.3 60.275 130.1 60.475 128 60.575Z" fill="#00A3FF"/>
<path d="M165.8 190.175C140.3 190.175 115.3 190.175 89.9 190.175C89.9 148.675 89.9 107.375 89.9 65.4748C95.6 65.4748 101.3 65.2748 106.9 65.6748C108 65.7748 109.7 68.1748 109.9 69.7748C110.7 74.0748 112.9 75.4748 117.2 75.2748C123.8 74.9748 130.5 74.8748 137.2 75.2748C142.6 75.6748 145.4 73.8748 145.8 68.3748C145.9 67.5748 146.2 66.7748 146.5 65.7748C152.8 65.7748 159.1 65.7748 165.8 65.7748C165.8 107.175 165.8 148.475 165.8 190.175ZM128 156.775C135.5 156.775 142.1 154.375 147.6 149.275C148.9 148.075 149.6 146.075 150.6 144.475C148.8 143.975 147.1 143.075 145.3 143.075C135.5 143.075 127.8 139.175 123 130.575C118.3 122.175 118.9 113.675 124 105.475C124.9 103.975 125.3 101.975 125.9 100.275C123.9 100.175 121.7 99.5748 119.8 100.075C106.1 103.975 97 117.875 99.1 131.475C101.3 146.075 113.4 156.675 128 156.775ZM132.9 127.275C132.6 131.375 134.3 132.575 137.8 130.475C141 128.575 143.7 128.275 146.9 130.475C147.9 131.175 150.1 131.475 150.9 130.875C151.7 130.275 152 128.075 151.7 126.875C150.6 123.175 152 120.775 154.7 118.275C157.8 115.375 157.2 113.175 153 112.875C148.9 112.575 146.8 110.975 145.3 107.275C144.1 104.275 141.7 103.175 140.1 106.675C138.3 110.775 135.7 112.675 131.2 113.075C127.9 113.375 127.4 115.775 129.8 117.875C133 120.675 134.9 123.475 132.9 127.275ZM127.5 186.975C130.4 185.475 134.6 184.075 134.5 183.175C134 179.075 130.1 180.575 127.6 180.775C125.3 180.875 123 182.175 120.7 182.975C122.8 184.175 124.9 185.475 127.5 186.975Z" fill="#00A3FF"/>
<path d="M117 106.475C112.3 129.675 119.4 142.375 139.9 147.875C135.6 152.075 126.7 153.275 119.2 150.175C110.1 146.475 104.9 139.475 103.9 129.775C102.9 120.275 107.8 111.575 117 106.475Z" fill="#00A3FF"/>
<path d="M147.5 117.675C146.9 119.575 146.2 121.575 145.5 123.675C143.7 123.675 141.5 123.675 139.2 123.675C138.6 121.875 137.9 119.675 137.3 117.675C138.9 116.475 140.7 115.175 142.4 113.875C144 114.975 145.8 116.375 147.5 117.675Z" fill="#00A3FF"/>
</svg>
