<svg width="256" height="256" viewBox="0 0 256 256" fill="none" xmlns="http://www.w3.org/2000/svg">
<path d="M177.199 69.4467C168.699 78.8467 161.099 88.6466 151.899 96.7466C148.799 99.4466 141.999 98.0466 136.799 98.3466C136.399 98.3466 135.799 96.4466 135.599 95.3466C134.599 90.8466 133.699 86.2467 132.699 81.6467C130.199 70.5467 119.999 65.0467 109.399 69.1467C105.699 70.5467 101.999 72.2466 98.2987 73.5466C94.8987 74.7466 94.4987 76.5467 95.7987 79.6467C99.9987 89.1467 97.8987 89.4466 108.199 85.2466C118.799 80.9466 117.599 80.6467 119.899 91.6467C120.399 93.8467 120.799 96.1466 121.399 98.8466C111.499 98.8466 102.199 99.0466 92.8987 98.7466C88.3987 98.6466 86.2987 100.147 86.7987 104.747C86.8987 105.547 86.7987 106.447 86.7987 107.247C86.7987 115.147 86.7987 115.147 94.3987 116.447C95.6987 129.347 97.0987 142.447 98.2987 155.447C98.3987 156.147 97.9987 157.147 97.4987 157.647C89.9987 166.047 82.3987 174.447 74.8987 182.847C48.5987 159.747 39.6987 111.347 70.4987 76.7466C100.699 42.7466 149.899 44.6467 177.199 69.4467Z" fill="#00A3FF"/>
<path d="M161.599 116.146C168.899 115.246 168.899 115.246 168.799 104.546C168.699 99.3464 168.699 99.3464 157.799 98.3464C165.799 89.4464 173.299 81.0465 180.899 72.6465C207.999 96.9465 215.499 145.246 184.999 179.146C154.299 213.346 105.199 210.446 78.4987 186.146C85.0987 178.846 91.6987 171.546 99.0987 163.246C99.7987 170.146 100.499 175.946 100.799 181.646C100.999 186.046 102.499 188.046 107.399 187.946C120.899 187.646 134.399 187.646 147.899 187.946C152.899 188.046 154.499 186.346 154.899 181.546C156.699 160.846 158.899 140.146 160.899 119.446C161.099 118.346 161.399 117.246 161.599 116.146Z" fill="#00A3FF"/>
<path d="M151.099 168.547C135.299 168.547 120.299 168.547 104.999 168.547C103.499 163.047 102.699 158.347 107.599 153.647C114.199 147.347 119.899 140.047 126.199 133.447C127.699 131.847 130.299 130.647 132.499 130.547C139.599 130.147 146.799 130.447 154.799 130.447C153.599 143.247 152.399 155.747 151.099 168.547Z" fill="#00A3FF"/>
<path d="M149.599 182.647C134.899 182.647 120.699 182.647 106.099 182.647C105.799 179.647 105.499 176.947 105.099 173.847C120.299 173.847 135.099 173.847 150.499 173.847C150.199 176.847 149.999 179.547 149.599 182.647Z" fill="#00A3FF"/>
<path d="M145.199 104.146C142.699 109.346 138.999 111.046 133.499 110.846C119.899 110.446 106.199 110.746 92.2987 110.746C92.2987 108.346 92.2987 106.446 92.2987 104.146C109.699 104.146 127.199 104.146 145.199 104.146Z" fill="#00A3FF"/>
<path d="M99.6987 116.146C111.299 116.146 122.599 116.146 134.599 116.146C130.699 121.346 127.599 126.746 119.799 125.546C115.399 124.946 110.799 125.046 106.399 125.546C100.999 126.146 99.2987 123.846 99.6987 118.946C99.7987 118.046 99.6987 117.246 99.6987 116.146Z" fill="#00A3FF"/>
<path d="M100.799 130.646C107.899 130.646 114.399 130.646 121.899 130.646C118.399 134.546 115.499 137.846 112.499 141.146C109.599 144.346 106.699 147.546 102.999 151.746C102.199 144.146 101.499 137.646 100.799 130.646Z" fill="#00A3FF"/>
<path d="M131.199 98.1466C127.899 99.2466 126.199 98.8466 125.799 95.5466C125.199 91.7466 124.299 88.0465 123.399 84.3465C121.799 77.8465 118.199 76.0466 111.899 78.4466C108.799 79.6466 105.699 80.8466 102.399 82.1466C101.799 80.7466 101.199 79.6466 100.499 78.0466C104.899 76.3466 108.899 74.3466 113.099 73.1466C118.999 71.4466 125.099 74.2466 126.899 79.9466C128.799 85.7466 129.799 91.9466 131.199 98.1466Z" fill="#00A3FF"/>
<path d="M156.299 116.347C155.999 119.147 155.699 122.047 155.399 125.147C148.299 125.147 141.499 125.147 134.799 125.147C138.599 116.547 143.399 114.547 156.299 116.347Z" fill="#00A3FF"/>
<path d="M147.599 110.547C150.699 102.847 156.899 103.447 163.399 104.147C163.399 106.247 163.399 108.247 163.399 110.547C158.099 110.547 152.999 110.547 147.599 110.547Z" fill="#00A3FF"/>
</svg>
