<svg width="256" height="256" viewBox="0 0 256 256" fill="none" xmlns="http://www.w3.org/2000/svg">
<path d="M117.874 203.79C114.874 203.79 112.174 203.79 108.874 203.79C108.874 196.89 108.874 190.29 108.874 183.69C108.874 179.19 109.074 174.69 108.774 170.19C108.474 164.69 104.174 160.89 98.9744 160.89C93.7744 160.89 89.7744 164.99 89.6744 170.59C89.5744 179.79 89.6744 188.89 89.6744 198.09C89.6744 199.89 89.6744 201.69 89.6744 203.79C86.3744 203.79 83.5744 203.79 80.4744 203.79C80.4744 184.89 80.4744 165.99 80.4744 146.79C112.274 146.79 143.974 146.79 175.874 146.79C175.874 165.89 175.874 184.69 175.874 203.79C172.874 203.79 170.174 203.79 166.674 203.79C166.674 196.79 166.674 189.89 166.674 182.99C166.674 179.29 166.774 175.69 166.674 171.99C166.574 165.29 162.674 160.99 156.974 160.89C151.274 160.89 147.274 165.29 147.274 171.89C147.174 182.39 147.274 192.89 147.274 203.69C144.174 203.69 141.474 203.69 137.874 203.69C137.874 200.99 137.874 198.29 137.874 195.49C137.874 187.49 137.974 179.49 137.774 171.49C137.674 164.99 133.374 160.69 127.674 160.89C122.174 161.09 118.474 165.39 118.474 171.79C118.374 181.99 118.374 192.09 118.374 202.29C118.274 202.59 118.074 202.99 117.874 203.79Z" fill="#00A3FF"/>
<path d="M117.574 84.4895C124.274 88.8895 131.474 90.1895 139.274 87.1895C140.174 86.7895 141.774 86.8895 142.474 87.4895C148.174 91.7895 154.374 95.5895 159.274 100.69C165.874 107.59 165.674 117.89 159.674 124.29C158.274 125.79 155.774 126.99 153.774 126.99C136.574 127.19 119.474 127.19 102.274 126.99C100.174 126.99 97.4744 125.59 95.9744 123.99C90.5744 118.09 90.3744 108.689 95.6744 101.889C98.3744 98.3895 101.974 95.4895 105.474 92.7895C109.174 89.6895 113.374 87.2895 117.574 84.4895ZM144.174 97.8895C143.774 98.2895 142.474 98.7895 142.374 99.4895C142.274 100.49 142.874 101.789 143.574 102.389C147.274 105.489 151.474 107.99 152.174 113.49C152.274 114.09 153.874 114.99 154.774 114.99C155.374 114.99 156.374 113.79 156.574 112.99C157.874 108.79 149.074 97.8895 144.174 97.8895Z" fill="#00A3FF"/>
<path d="M181.174 130.19C187.474 130.19 193.474 130.19 199.574 130.19C199.574 149.19 199.574 167.89 199.574 186.99C193.474 186.99 187.474 186.99 181.174 186.99C181.174 168.09 181.174 149.39 181.174 130.19Z" fill="#00A3FF"/>
<path d="M74.5744 187.09C68.3744 187.09 62.4744 187.09 56.1744 187.09C56.1744 168.19 56.1744 149.49 56.1744 130.39C62.0744 130.39 68.1744 130.39 74.5744 130.39C74.5744 148.99 74.5744 167.69 74.5744 187.09Z" fill="#00A3FF"/>
<path d="M166.374 141.59C140.574 141.59 115.474 141.59 89.9744 141.59C89.8744 139.79 89.8744 138.19 89.6744 136.59C89.3744 133.49 90.5744 132.09 93.8744 132.09C116.674 132.19 139.474 132.19 162.274 132.09C165.374 132.09 166.474 133.29 166.374 136.29C166.274 137.89 166.374 139.59 166.374 141.59Z" fill="#00A3FF"/>
<path d="M190.474 107.99C188.474 107.99 186.474 107.99 184.474 107.99C178.574 107.99 176.474 106.19 176.074 100.29C175.674 94.4896 178.574 90.2896 182.474 86.2896C184.874 83.7896 186.174 80.3896 188.074 77.3896C188.674 76.3896 189.574 75.4896 190.374 74.5896C191.174 75.4896 192.174 76.2896 192.774 77.2896C194.874 80.4896 196.474 84.0896 198.974 86.8896C202.874 91.1896 205.574 95.6896 204.574 101.59C203.874 105.69 202.074 108.79 196.974 108.09C194.874 107.79 192.674 107.99 190.474 107.99Z" fill="#00A3FF"/>
<path d="M65.2745 107.99C63.2745 107.99 61.2745 107.99 59.2745 107.99C53.6745 107.99 51.5744 106.09 51.0744 100.49C50.5744 94.8896 53.2745 90.7896 56.8745 86.7896C59.3745 83.9896 60.9744 80.2896 63.0744 77.0896C63.6744 76.0896 64.7744 75.3896 65.5744 74.5896C66.2744 75.3896 67.0745 76.0896 67.6745 76.9896C69.6745 80.1896 71.2745 83.8896 73.7745 86.6896C77.9745 91.2896 80.7745 95.9896 79.3745 102.29C78.5745 105.99 76.7745 108.69 72.1745 107.99C69.9745 107.69 67.5745 107.99 65.2745 107.99Z" fill="#00A3FF"/>
<path d="M146.474 69.8896C146.574 76.4896 141.774 81.6896 134.374 83.3896C126.174 85.3896 117.374 80.4896 114.474 72.2896C111.674 64.3896 115.374 54.7896 122.674 51.4896C123.874 50.9896 125.574 50.7896 126.774 51.2896C127.374 51.4896 127.474 53.5896 127.274 54.7896C125.874 64.6896 132.174 71.1896 142.174 70.0896C143.674 69.9896 145.074 69.9896 146.474 69.8896Z" fill="#00A3FF"/>
<path d="M132.674 203.79C129.374 203.79 126.574 203.79 123.174 203.79C123.174 192.49 122.974 181.29 123.374 169.99C123.374 168.59 126.374 166.19 127.974 166.19C129.574 166.19 132.374 168.69 132.374 170.19C132.874 181.39 132.674 192.49 132.674 203.79Z" fill="#00A3FF"/>
<path d="M161.574 203.79C158.274 203.79 155.574 203.79 152.074 203.79C152.074 197.69 152.074 191.59 152.074 185.49C152.074 181.19 152.074 176.89 152.074 172.49C151.974 168.99 152.574 165.89 156.874 165.99C161.274 166.09 161.574 169.39 161.574 172.69C161.574 181.19 161.574 189.59 161.574 198.09C161.574 199.99 161.574 201.79 161.574 203.79Z" fill="#00A3FF"/>
<path d="M103.774 203.889C100.274 203.889 97.6744 203.889 94.2744 203.889C94.2744 197.489 94.2744 191.289 94.2744 184.989C94.2744 180.189 93.8744 175.289 94.5744 170.589C94.7744 168.889 97.3744 166.589 99.2744 166.189C100.474 165.989 103.574 168.689 103.674 170.189C103.974 181.289 103.774 192.389 103.774 203.889Z" fill="#00A3FF"/>
<path d="M65.4745 112.99C67.9745 112.99 70.4745 112.99 72.9745 112.99C79.3745 112.99 81.9744 116.69 79.5744 122.69C79.1744 123.69 77.3745 124.69 76.1745 124.69C69.0745 124.89 61.8745 124.79 54.6745 124.79C49.5745 124.79 51.3745 120.89 51.0745 118.19C50.8745 115.39 50.7745 112.69 54.9745 112.89C58.4745 113.19 61.9745 112.99 65.4745 112.99Z" fill="#00A3FF"/>
<path d="M190.074 124.89C187.074 124.89 184.074 124.69 181.074 124.99C176.474 125.49 175.974 122.99 175.974 119.29C176.074 115.69 175.874 112.69 181.074 113.09C187.574 113.49 194.074 113.39 200.574 113.09C205.474 112.89 204.874 115.99 204.874 119.09C204.874 122.09 205.474 125.39 200.574 125.09C197.074 124.69 193.574 124.89 190.074 124.89Z" fill="#00A3FF"/>
<path d="M181.174 204.089C181.174 199.889 181.174 196.489 181.174 192.289C188.274 192.289 195.474 191.689 202.474 192.489C206.774 192.989 204.674 197.389 204.674 200.089C204.674 201.389 202.774 203.889 201.674 203.889C194.974 204.289 188.274 204.089 181.174 204.089Z" fill="#00A3FF"/>
<path d="M74.4744 204.09C67.7744 204.09 61.4744 203.99 55.1744 204.09C50.7744 204.19 50.8744 201.39 51.0744 198.49C51.2744 195.69 49.9744 192.09 54.8744 192.09C61.2744 192.09 67.7744 192.09 74.4744 192.09C74.4744 196.29 74.4744 200.09 74.4744 204.09Z" fill="#00A3FF"/>
</svg>
