<svg width="256" height="256" viewBox="0 0 256 256" fill="none" xmlns="http://www.w3.org/2000/svg">
<path d="M175.15 136.7C166.55 134 158.85 134.9 151.05 138.6C148.25 139.9 143.65 139.4 140.65 138C131.95 134.2 123.85 134.1 115.15 138C112.15 139.4 107.55 139.8 104.75 138.5C96.95 134.9 89.25 134 81.05 136.5C79.95 116.3 101.95 95.6 125.75 94.3C150.55 92.9 173.85 112.6 175.15 136.7Z" fill="#00A3FF"/>
<path d="M204.75 157.7C199.15 159.6 194.25 162 189.15 162.7C184.75 163.3 179.75 163.1 175.75 161.5C168.45 158.6 161.65 158.1 154.65 161.7C149.25 164.5 143.75 164.4 138.35 161.7C131.35 158.1 124.25 158.2 117.25 161.8C111.85 164.6 106.35 164.5 100.95 161.7C93.95 158.1 87.15 158.8 79.85 161.6C75.75 163.2 70.45 163.1 65.95 162.5C61.15 161.8 56.55 159.6 51.05 157.7C51.05 153.4 50.85 148.2 51.25 142.9C51.35 141.8 53.65 139.9 54.75 140.1C57.85 140.4 60.95 141.3 63.75 142.6C69.25 145.2 74.65 145.5 80.05 142.7C87.25 138.9 94.35 138.9 101.55 142.7C106.75 145.5 112.05 145.4 117.35 142.6C124.35 139 131.35 138.8 138.35 142.5C143.95 145.5 149.55 145.3 155.05 142.4C161.75 138.9 168.45 138.9 175.15 142.3C180.95 145.3 186.55 145.5 192.35 142.4C193.35 141.8 194.45 141.4 195.55 141C203.45 138.3 204.95 139.4 204.85 147.6C204.75 151.2 204.75 154.9 204.75 157.7Z" fill="#00A3FF"/>
<path d="M51.05 163.2C55.15 164.4 58.75 164.9 61.95 166.3C68.75 169.5 75.45 169.7 82.05 166.2C87.85 163.2 93.45 163.1 99.25 166.2C105.85 169.7 112.65 169.7 119.35 166.2C125.15 163.2 130.75 163.2 136.55 166.2C143.25 169.7 149.95 169.7 156.65 166.2C162.45 163.2 168.05 163.2 173.85 166.2C180.55 169.7 187.15 169.4 194.05 166.3C197.25 164.9 200.75 164.3 204.95 163.1C204.95 169.6 205.15 174.7 204.85 179.8C204.75 180.9 203.05 182 201.95 183C201.65 183.3 200.95 183 200.45 183.2C189.65 188.3 179.05 189 167.95 183.5C165.35 182.2 160.65 183.7 157.55 185.1C150.15 188.4 143.15 188.8 135.95 185C130.65 182.2 125.35 182.3 120.15 185C112.95 188.7 105.85 188.7 98.65 185C93.25 182.2 87.85 182.4 82.45 185.2C75.85 188.6 69.05 188.7 62.35 185.4C60.75 184.6 58.95 183.4 57.25 183.5C51.45 183.7 50.85 180.4 51.15 175.8C51.25 172.1 51.05 168.3 51.05 163.2Z" fill="#00A3FF"/>
<path d="M91.05 103.2C90.75 103.7 90.55 104.7 89.95 104.9C89.15 105.2 87.75 105.2 87.25 104.7C83.15 100.8 79.15 96.9001 75.35 92.8001C74.85 92.2001 75.05 90.6001 75.45 89.7001C75.65 89.2001 77.55 89 77.95 89.4C82.25 93.5 86.45 97.7 90.65 101.9C90.85 102.1 90.85 102.5 91.05 103.2Z" fill="#00A3FF"/>
<path d="M181.25 91.2001C180.75 92.1001 180.45 92.9001 179.95 93.4001C176.35 97.1001 172.75 100.7 169.05 104.2C168.35 104.9 166.75 104.6 165.65 104.8C165.65 103.6 165.15 102 165.75 101.4C169.25 97.5001 173.05 93.7001 176.85 90.1001C177.55 89.5001 178.95 89.4001 179.95 89.5001C180.35 89.5001 180.75 90.5001 181.25 91.2001Z" fill="#00A3FF"/>
<path d="M100.65 73.2002C101.35 74.0002 102.35 74.6002 102.75 75.5002C104.75 80.0002 106.75 84.6002 108.35 89.2002C108.75 90.3002 107.85 91.8002 107.65 93.1002C106.45 92.3002 104.65 91.8002 104.15 90.7002C102.05 86.4002 100.25 82.0002 98.65 77.5002C98.25 76.3002 98.95 74.7002 99.15 73.2002C99.65 73.2002 100.15 73.2002 100.65 73.2002Z" fill="#00A3FF"/>
<path d="M148.25 94.1001C147.75 92.4001 146.75 91.0001 147.05 90.1001C148.95 85.0001 151.05 80.0001 153.25 75.0001C153.55 74.3001 155.25 73.5001 156.05 73.7001C156.75 73.9001 157.75 75.6002 157.45 76.3002C155.45 81.7002 153.15 87.0002 150.85 92.3002C150.65 92.8002 149.65 93.1001 148.25 94.1001Z" fill="#00A3FF"/>
<path d="M79.45 121.9C78.05 122.4 76.65 123.4 75.75 123.1C70.65 121.2 65.65 119.1 60.65 116.8C59.85 116.4 59.25 115 59.25 114.1C59.25 113.6 60.85 112.5 61.35 112.7C67.05 114.9 72.65 117.2 78.25 119.6C78.65 119.6 78.85 120.5 79.45 121.9Z" fill="#00A3FF"/>
<path d="M179.25 123.6C178.45 123 177.15 122.6 177.15 122C177.05 121.1 177.45 119.4 178.15 119.1C183.25 116.8 188.45 114.6 193.65 112.7C194.35 112.4 195.85 113.2 196.45 113.9C196.75 114.3 196.35 116.1 195.75 116.4C190.35 118.8 184.95 121.1 179.25 123.6Z" fill="#00A3FF"/>
<path d="M130.05 78.9C130.05 81.5 130.25 84.2 129.95 86.8C129.85 87.6 128.65 88.3 127.85 89.1C127.15 88.4 125.75 87.6 125.75 86.9C125.55 81.3 125.55 75.6 125.75 70C125.75 69.3 127.25 68.6 128.05 68C128.75 68.8 129.85 69.6 129.95 70.5C130.25 73.2 130.05 76 130.05 78.9Z" fill="#00A3FF"/>
<path d="M136.35 87.7001C137.05 84.4001 137.35 81.9001 138.15 79.5001C138.45 78.7001 139.75 78.2001 140.55 77.6001C141.25 78.6001 142.55 79.6001 142.45 80.5001C142.25 83.0001 141.75 85.4001 140.95 87.8001C140.65 88.8001 139.25 89.4001 138.45 90.3001C137.65 89.2001 136.75 88.2001 136.35 87.7001Z" fill="#00A3FF"/>
<path d="M73.35 133.8C70.25 133.2 67.75 132.9 65.35 132.1C64.45 131.8 63.95 130.3 63.25 129.3C64.35 128.7 65.35 127.6 66.35 127.7C68.85 127.9 71.25 128.3 73.65 129.1C74.55 129.4 75.75 131 75.65 131.8C75.55 132.7 73.95 133.3 73.35 133.8Z" fill="#00A3FF"/>
<path d="M165.95 89.6002C163.85 92.5002 161.95 95.3001 159.85 98.0001C159.55 98.4001 157.95 98.2002 157.25 97.8002C156.75 97.5002 156.35 96.2002 156.55 95.7002C158.25 92.9002 159.95 90.1001 161.95 87.5001C162.25 87.0001 163.75 87.1001 164.55 87.4001C165.05 87.7001 165.35 88.7002 165.95 89.6002Z" fill="#00A3FF"/>
<path d="M75.35 104.2C78.15 106.3 81.05 108.2 83.65 110.4C84.05 110.7 84.05 112.2 83.65 112.6C83.05 113.2 81.75 113.8 81.15 113.5C78.45 112 75.75 110.3 73.35 108.4C72.85 108 72.85 106.5 73.15 105.7C73.35 105.1 74.35 104.8 75.35 104.2Z" fill="#00A3FF"/>
<path d="M99.95 95.8002C99.15 96.8002 98.75 97.8002 98.25 98.0002C97.45 98.2002 95.95 98.2002 95.55 97.6002C93.75 95.2002 92.05 92.7002 90.55 90.1002C90.25 89.5002 90.65 88.2002 91.15 87.5002C91.45 87.0002 93.05 86.8002 93.25 87.1002C95.55 90.0002 97.65 92.9002 99.95 95.8002Z" fill="#00A3FF"/>
<path d="M182.45 133.7C181.95 133.3 180.35 132.8 180.25 132C180.15 131.1 181.25 129.5 182.15 129.2C184.65 128.4 187.25 127.9 189.85 127.7C190.75 127.6 191.65 128.7 192.55 129.2C191.85 130.2 191.35 131.7 190.45 132C188.15 132.9 185.65 133.1 182.45 133.7Z" fill="#00A3FF"/>
<path d="M184.95 107.6C180.05 109.9 176.45 111.7 172.95 113.4C172.65 112.4 171.85 110.8 172.05 110.6C174.95 108.5 177.85 106.5 180.95 104.8C181.35 104.5 182.55 105.8 184.95 107.6Z" fill="#00A3FF"/>
<path d="M119.35 87.7002C118.95 88.3002 118.25 89.3002 117.55 90.2002C116.65 89.5002 115.15 88.9002 114.85 88.0002C114.05 85.7002 113.55 83.2002 113.35 80.8002C113.25 79.8002 114.35 78.8002 114.95 77.7002C115.95 78.4002 117.45 78.9002 117.75 79.8002C118.45 82.0002 118.75 84.5002 119.35 87.7002Z" fill="#00A3FF"/>
</svg>
