<svg width="256" height="256" viewBox="0 0 256 256" fill="none" xmlns="http://www.w3.org/2000/svg">
<path d="M117.703 102.6C124.503 103.1 130.403 103.3 136.203 103.9C137.503 104 139.303 105 139.803 106.1C142.503 112.2 147.003 116.3 152.403 119.9C168.903 130.8 175.403 148.1 169.403 164.7C168.603 167 167.303 169.2 166.103 171.4C164.103 174.8 161.303 176.3 157.103 176.2C137.903 176 118.803 175.9 99.6028 176.2C94.6028 176.3 91.8028 174.3 89.6028 170.4C83.1028 158.7 82.4028 146.7 89.6028 135.3C93.1028 129.8 97.7028 124.6 102.903 120.7C109.903 115.7 115.803 110.3 117.703 102.6ZM163.203 152.8C162.303 143.6 155.003 131.7 146.903 127.7C145.903 127.2 144.303 127.8 143.003 127.9C143.403 129.1 143.603 130.6 144.303 131.6C145.003 132.6 146.403 133.2 147.403 134C157.603 142.3 159.703 152 154.103 163.6C153.603 164.7 154.003 166.2 154.003 167.6C155.403 167.1 157.603 167 158.003 166.1C160.003 161.8 161.503 157.3 163.203 152.8Z" fill="#00A3FF"/>
<path d="M145.503 81.3C146.203 81.2 148.203 80.8 150.203 80.6C151.403 80.5 152.703 80.7 153.903 80.8C153.803 82.4 154.003 84.1 153.403 85.4C147.203 99.1 128.703 103.5 116.403 94.2C102.203 83.6 103.603 61.4 119.103 53.1C120.703 52.2 122.803 52.3 124.603 52C124.603 53.7 125.003 55.5 124.703 57.1C122.403 69.7 131.603 81.2 145.503 81.3Z" fill="#00A3FF"/>
<path d="M127.903 205C111.603 205 95.3028 205 79.0028 205C75.5028 205 72.9028 204.8 73.0028 200.1C73.0028 195.6 75.5028 195.5 78.8028 195.5C111.903 195.6 145.103 195.6 178.203 195.5C181.803 195.5 183.703 196.1 183.703 200.4C183.703 204.9 181.303 205 177.903 205C161.203 205 144.503 205 127.903 205Z" fill="#00A3FF"/>
<path d="M172.003 190.4C142.503 190.4 114.103 190.4 85.0028 190.4C85.0028 188.5 85.1028 186.7 85.0028 185C84.9028 182.3 86.1028 181.1 88.9028 181.1C115.003 181.1 141.203 181 167.303 181.2C174.803 181.2 169.703 187.1 172.003 190.4Z" fill="#00A3FF"/>
</svg>
