<svg width="256" height="256" viewBox="0 0 256 256" fill="none" xmlns="http://www.w3.org/2000/svg">
<path d="M168.475 145.371C141.375 157.271 114.775 157.371 87.775 145.371C98.275 138.571 98.775 135.271 93.475 124.071C83.775 103.671 84.775 83.7711 98.975 65.8711C117.875 41.9711 151.575 47.7711 164.375 76.8711C171.375 92.6711 170.775 108.671 163.075 124.171C157.375 135.171 157.975 137.971 168.475 145.371ZM154.675 99.1711C154.575 88.1711 151.275 78.4711 142.775 71.0711C133.975 63.3711 122.575 63.4711 113.675 70.9711C97.675 84.3711 97.7751 114.171 113.875 127.371C122.875 134.771 134.875 134.471 143.375 126.471C151.375 119.071 154.375 109.671 154.675 99.1711Z" fill="#00A3FF"/>
<path d="M175.675 204.671C173.375 196.771 171.275 189.771 169.475 182.571C168.875 180.171 169.475 177.571 169.075 175.171C168.875 173.771 167.575 172.671 166.775 171.371C165.875 172.571 164.275 173.771 164.375 174.871C164.775 179.271 165.675 183.571 166.475 187.871C167.475 193.171 168.675 198.371 169.975 204.271C156.075 204.271 143.475 204.271 130.775 204.271C130.775 189.571 130.775 174.671 130.775 159.571C135.975 158.871 141.075 158.871 145.875 157.571C154.475 155.171 162.875 151.971 171.475 149.371C173.775 148.671 176.575 148.371 178.775 149.171C190.775 153.171 196.175 161.671 195.575 174.371C195.175 182.171 195.575 190.071 195.475 197.871C195.475 203.671 194.375 204.671 188.875 204.771C183.975 204.671 179.175 204.671 175.675 204.671Z" fill="#00A3FF"/>
<path d="M125.475 159.871C125.475 174.471 125.475 189.271 125.475 204.371C113.375 204.371 100.775 204.371 87.875 204.371C86.675 198.171 88.075 192.471 90.275 186.571C91.775 182.671 91.775 178.271 92.075 174.071C92.175 173.271 90.575 172.271 89.775 171.371C88.975 172.271 87.375 173.271 87.475 173.971C88.375 180.471 84.975 185.871 83.475 191.671C82.475 195.671 82.475 199.871 81.975 204.571C76.475 204.571 70.875 204.871 65.275 204.371C63.775 204.171 61.275 201.471 61.275 199.871C60.975 188.871 60.775 177.871 61.475 166.971C62.075 157.871 71.475 149.171 80.775 147.771C81.575 147.671 82.475 147.771 83.075 148.171C95.875 155.271 109.775 158.271 124.175 159.271C124.475 159.271 124.775 159.471 125.475 159.871Z" fill="#00A3FF"/>
<path d="M125.275 82.1709C149.475 84.0709 152.475 88.5709 148.075 108.871C146.875 114.271 142.975 119.771 138.875 123.671C132.075 130.271 121.475 128.971 114.875 121.571C106.775 112.571 105.175 101.871 107.675 90.3709C107.975 88.8709 109.675 87.0709 111.075 86.5709C116.675 84.5709 122.375 83.0709 125.275 82.1709ZM128.175 120.571C131.375 118.671 134.075 117.371 136.575 115.571C137.275 115.071 136.975 113.271 137.075 112.071C135.875 111.971 134.275 111.471 133.675 111.971C129.875 115.471 126.475 115.271 122.675 111.971C121.975 111.371 120.375 111.871 119.275 111.971C119.375 113.171 119.075 114.971 119.675 115.371C122.275 117.271 125.075 118.771 128.175 120.571ZM137.375 90.4709C134.875 92.8709 132.675 94.4709 131.175 96.5709C130.575 97.4709 131.475 99.4709 131.675 100.871C132.875 100.271 134.675 99.8709 135.275 98.8709C136.775 96.2709 137.875 95.7709 139.975 98.3709C140.875 99.4709 142.475 100.071 143.775 100.871C143.875 99.0709 144.675 96.7709 143.875 95.5709C142.575 93.7709 140.075 92.5709 137.375 90.4709ZM116.875 91.5709C115.475 93.0709 113.375 95.2709 111.675 97.7709C111.275 98.3709 112.375 99.9709 112.775 101.171C113.875 100.771 115.575 100.571 115.875 99.8709C117.675 95.9709 119.175 95.4709 121.275 99.6709C121.675 100.471 123.275 100.671 124.275 101.171C124.675 100.071 125.675 98.7709 125.475 97.7709C124.875 93.9709 122.275 92.1709 116.875 91.5709Z" fill="#00A3FF"/>
<path d="M112.075 80.4707C120.675 66.9707 136.375 67.1707 144.075 80.3707C133.475 76.4707 123.275 76.2707 112.075 80.4707Z" fill="#00A3FF"/>
</svg>
