<svg width="256" height="256" viewBox="0 0 256 256" fill="none" xmlns="http://www.w3.org/2000/svg">
<path d="M147.331 151.675C154.631 154.075 161.731 155.875 168.431 158.775C175.931 161.975 180.031 168.175 180.431 176.375C180.831 184.475 180.731 192.675 180.431 200.875C180.431 202.175 178.731 204.375 177.631 204.375C171.731 204.675 165.731 204.575 159.131 204.575C159.131 197.975 159.331 191.875 159.031 185.775C158.931 184.075 157.631 182.475 156.831 180.875C155.931 182.475 154.331 184.175 154.231 185.875C153.931 191.875 154.131 197.875 154.131 204.175C136.531 204.175 119.131 204.175 101.231 204.175C101.231 197.975 101.431 191.775 101.131 185.675C101.031 184.075 99.7309 182.475 99.0309 180.875C98.2309 182.575 96.731 184.175 96.631 185.975C96.331 191.975 96.5309 197.975 96.5309 204.575C90.0309 204.575 83.7309 204.675 77.5309 204.375C76.6309 204.375 75.2309 202.175 75.2309 200.975C75.0309 192.675 74.8309 184.275 75.2309 175.975C75.6309 168.475 79.4309 162.375 86.2309 159.275C93.1309 156.175 100.531 154.275 108.031 151.675C109.531 161.775 114.331 168.275 123.831 170.875C124.531 171.075 125.131 172.975 125.231 174.075C125.431 177.575 125.131 181.075 125.431 184.575C125.531 185.675 127.031 186.675 127.831 187.675C128.631 186.575 129.631 185.675 130.231 184.475C130.531 183.775 130.331 182.875 130.331 181.975C130.031 175.875 129.331 170.475 137.731 167.875C144.131 165.975 146.631 158.975 147.331 151.675Z" fill="#00A3FF"/>
<path d="M167.931 74.775C141.031 74.775 114.331 74.775 87.731 74.775C86.431 66.275 95.931 52.575 108.531 51.675C121.231 50.775 134.231 50.775 146.931 51.675C158.431 52.475 167.531 63.275 167.931 74.775Z" fill="#00A3FF"/>
<path d="M106.231 92.1748C120.831 92.1748 134.931 92.1748 149.231 92.1748C149.231 104.675 149.431 116.775 149.131 128.875C149.031 133.175 141.131 139.475 136.131 139.675C130.631 139.875 125.131 139.875 119.631 139.675C112.831 139.475 106.131 132.475 106.131 125.675C106.131 114.675 106.231 103.675 106.231 92.1748ZM127.831 132.675C131.031 130.675 133.931 129.175 136.431 127.275C137.031 126.875 136.531 125.075 136.631 123.875C135.531 123.875 134.131 123.375 133.531 123.875C129.631 127.475 126.031 127.375 122.131 123.775C121.631 123.275 120.131 123.775 119.031 123.775C119.131 124.975 118.631 126.675 119.231 127.175C121.731 129.175 124.631 130.675 127.831 132.675ZM118.331 103.775C114.831 103.675 111.231 106.675 111.231 109.975C111.231 111.075 112.231 112.175 112.831 113.275C113.731 112.775 115.131 112.475 115.531 111.775C117.631 107.075 119.331 107.875 121.131 111.975C121.431 112.675 123.231 113.375 123.831 113.075C124.631 112.675 125.231 111.275 125.231 110.275C125.331 106.875 121.931 103.875 118.331 103.775ZM136.931 102.475C134.531 104.875 132.231 106.675 130.731 108.975C130.231 109.775 131.431 111.775 131.931 113.175C133.031 112.475 134.631 111.975 135.131 110.975C136.531 108.175 137.731 107.875 139.831 110.375C140.731 111.475 142.231 112.175 143.531 112.975C143.631 111.075 144.331 108.575 143.531 107.275C142.131 105.475 139.631 104.375 136.931 102.475Z" fill="#00A3FF"/>
<path d="M168.231 80.0752C169.031 86.4752 168.731 86.9752 163.031 86.9752C139.731 86.9752 116.531 86.9752 93.2309 86.9752C86.9309 86.9752 86.8309 86.7752 87.4309 80.0752C114.231 80.0752 141.031 80.0752 168.231 80.0752Z" fill="#00A3FF"/>
<path d="M114.031 144.275C123.331 144.275 132.531 144.275 142.031 144.275C142.631 151.475 143.131 158.975 135.631 163.975C130.831 167.175 124.531 166.975 119.631 163.575C114.231 159.975 112.431 153.675 114.031 144.275Z" fill="#00A3FF"/>
<path d="M154.531 124.775C154.531 117.875 154.531 111.275 154.531 103.975C159.731 104.375 166.231 101.275 169.231 106.775C171.331 110.775 170.831 116.775 169.831 121.575C169.031 125.475 164.331 126.075 154.531 124.775Z" fill="#00A3FF"/>
<path d="M100.931 125.375C95.431 124.475 88.731 127.875 86.131 121.775C84.331 117.575 84.331 111.275 86.331 107.075C89.031 101.175 95.6309 104.375 101.031 103.775C100.931 111.075 100.931 117.875 100.931 125.375Z" fill="#00A3FF"/>
<path d="M163.531 98.6748C160.331 98.6748 157.631 98.6748 154.631 98.6748C154.631 96.4748 154.631 94.5748 154.631 92.1748C157.531 92.1748 160.331 92.1748 163.531 92.1748C163.531 94.2748 163.531 96.1748 163.531 98.6748Z" fill="#00A3FF"/>
<path d="M101.031 92.0752C101.031 94.4752 101.031 96.4752 101.031 98.6752C98.1309 98.6752 95.431 98.6752 92.331 98.6752C92.331 96.4752 92.331 94.4752 92.331 92.0752C95.131 92.0752 97.8309 92.0752 101.031 92.0752Z" fill="#00A3FF"/>
</svg>
