<svg width="256" height="256" viewBox="0 0 256 256" fill="none" xmlns="http://www.w3.org/2000/svg">
<path d="M137.7 142.278C135.3 149.978 133.1 156.978 130.9 163.878C128.7 170.778 126.5 177.778 124.1 185.178C139.7 185.178 154.6 185.178 170.2 185.178C165.7 170.978 161.3 156.978 156.7 142.278C162.1 142.278 166.9 142.078 171.6 142.478C172.8 142.578 174.2 144.678 174.7 146.078C178.5 157.578 182.3 169.178 185.7 180.778C186.8 184.678 188.6 185.778 192.3 185.478C195.4 185.178 198.6 185.278 201.8 185.578C202.8 185.678 203.6 186.978 204.5 187.778C203.6 188.578 202.8 189.578 201.7 190.078C200.9 190.478 199.7 190.178 198.7 190.178C151.6 190.178 104.5 190.178 57.3 190.078C55.2 190.078 53.1 188.678 51 187.878C53.1 187.078 55.1 185.678 57.2 185.578C71.7 185.378 86.2 185.178 100.7 185.578C105.7 185.678 107.6 183.878 108.9 179.378C112.1 168.178 115.9 157.178 119.3 146.078C120.2 143.278 121.4 141.978 124.5 142.178C128.8 142.478 132.9 142.278 137.7 142.278Z" fill="#00A3FF"/>
<path d="M108.1 137.078C109.3 134.178 110.3 131.778 111.2 129.378C114 121.978 111.6 115.078 105.2 111.978C99 108.978 92.2 111.378 88.2 117.978C87.8 118.678 87.4 119.378 87 120.278C83.1 113.878 83.1 113.778 88.3 108.778C90.1 107.078 91.9 105.278 93.7 103.578C103.6 94.078 101.5 83.678 88.7 79.178C94.7 64.878 111.8 60.978 123.3 71.178C139.3 85.378 139.2 117.578 123.1 131.578C118.9 135.178 114.3 137.378 108.1 137.078Z" fill="#00A3FF"/>
<path d="M124.9 137.178C145.4 111.478 145.4 87.878 125.4 66.278C132.2 63.778 136.2 64.878 140.5 70.178C152.8 85.478 152.6 117.478 140.2 132.778C136.4 137.478 135.9 137.578 124.9 137.178Z" fill="#00A3FF"/>
<path d="M184.2 65.678C189.8 64.678 193.1 66.678 195.8 70.278C207.8 86.378 207.8 115.778 195.9 131.978C192.6 136.478 190.9 137.278 184.2 137.078C192 126.278 195.4 114.478 195.4 101.678C195.4 88.778 192.5 76.678 184.2 65.678Z" fill="#00A3FF"/>
<path d="M189.8 103.978C190 104.578 190 104.678 190 104.878C190.4 117.278 189.7 118.078 177.6 118.078C169.5 118.078 161.4 118.078 152.7 118.078C153.4 113.178 154 108.678 154.6 103.978C166.4 103.978 178 103.978 189.8 103.978Z" fill="#00A3FF"/>
<path d="M186.7 122.978C185 126.078 184.1 128.078 182.8 130.078C179.7 134.978 176 137.978 169.4 137.478C161 136.778 152.5 137.278 143.7 137.278C146 132.778 148.1 128.478 150.4 124.378C150.8 123.578 152.3 122.978 153.2 122.978C164.1 122.978 174.8 122.978 186.7 122.978Z" fill="#00A3FF"/>
<path d="M190.6 98.4779C178 98.4779 166.5 98.4779 154.7 98.4779C154.1 93.8779 153.5 89.4779 152.9 84.8779C164.8 84.8779 176.4 84.8779 188.6 84.8779C189.2 89.2779 189.8 93.5779 190.6 98.4779Z" fill="#00A3FF"/>
<path d="M186.1 79.5781C175 79.5781 164.4 79.6781 153.7 79.4781C152.4 79.4781 150.8 78.2781 150.1 77.0781C147.9 73.5781 146.1 69.8781 143.7 65.2781C146.6 65.2781 149.3 65.2781 152 65.2781C157.2 65.2781 162.3 65.2781 167.5 65.2781C178.4 65.2781 182 67.9781 186.1 79.5781Z" fill="#00A3FF"/>
<path d="M77 108.878C75.5 107.678 72.3 106.378 71.6 104.278C70.7 101.678 70.9001 97.778 72.4001 95.578C75.0001 91.778 78.7 88.678 82.3 85.878C85.3 83.478 89.5 83.3779 91.8 86.2779C93.6 88.4779 95.1001 93.278 93.9001 94.978C90.4001 99.878 85.5 103.778 81.1 107.978C80.5 108.478 79.2 108.378 77 108.878Z" fill="#00A3FF"/>
<path d="M108.8 123.178C105.7 129.678 103.8 135.478 100.4 140.178C99.1 141.978 94.4 142.278 91.6 141.678C88.1 140.878 86.3 137.178 87.4 133.778C88.9 128.778 90.7 123.578 93.5 119.278C94.9 117.178 99.5 115.778 101.9 116.478C104.6 117.078 106.5 120.678 108.8 123.178Z" fill="#00A3FF"/>
<path d="M66.4 107.178C68.1 108.778 69.8 110.278 71.3 111.578C67 116.178 62.9 120.878 58.3 125.078C57.1 126.078 54.3 125.278 52.2 125.378C52.4 123.478 51.9 120.978 52.9 119.678C56.6 114.778 60.8 110.278 64.9 105.578C65.4 106.078 65.9 106.678 66.4 107.178Z" fill="#00A3FF"/>
<path d="M86.5 144.978C89 146.078 91.2 147.078 93.7 148.178C91.3 153.978 89.2 159.678 86.4 165.178C85.7 166.578 82.9 167.078 81.1 167.978C80.5 165.978 79 163.678 79.5 162.078C81.5 156.178 84.1 150.678 86.5 144.978Z" fill="#00A3FF"/>
</svg>
