<svg width="256" height="256" viewBox="0 0 256 256" fill="none" xmlns="http://www.w3.org/2000/svg">
<path d="M70.625 192.6C70.625 179.2 70.625 166.9 70.625 154.3C78.225 154.3 85.525 154 92.725 154.5C95.025 154.7 97.625 156.6 99.525 158.3C105.325 163.8 110.925 169.5 116.525 175.2C121.125 179.9 121.525 185.6 117.525 189.3C113.425 193.2 108.125 192.7 103.425 188C98.725 183.3 94.125 178.5 89.225 173.9C88.125 172.9 86.125 172.9 84.525 172.5C84.925 174 84.825 176 85.825 177.1C90.825 182.5 96.025 187.7 101.325 192.7C108.625 199.6 119.525 197.7 123.825 188.5C125.025 186 126.225 185.1 128.925 185.1C135.625 185.3 142.225 185.1 148.925 185.2C154.925 185.3 159.025 189.2 159.125 194.6C159.225 200.2 155.025 204.2 148.725 204.2C132.925 204.3 117.025 204.4 101.225 204.1C98.425 204.1 94.825 203.2 93.025 201.3C87.025 194.7 80.525 190 70.625 192.6Z" fill="#00A3FF"/>
<path d="M204.425 204.1C200.625 204.1 197.125 204.1 193.225 204.1C193.225 153.1 193.225 102.2 193.225 51C196.825 51 200.425 51 204.425 51C204.425 101.9 204.425 152.7 204.425 204.1Z" fill="#00A3FF"/>
<path d="M171.125 115.9C171.125 119.1 171.025 122.2 171.125 125.4C171.225 128.5 170.125 130.1 166.925 130C160.125 129.9 153.325 129.9 146.525 130C143.625 130 142.325 128.9 142.325 125.8C142.425 118.8 142.425 111.9 142.325 104.9C142.325 102 143.625 101.1 146.225 101.1C153.225 101.2 160.125 101.2 167.125 101.1C170.225 101.1 171.125 102.6 171.025 105.4C171.025 108.9 171.125 112.4 171.125 115.9Z" fill="#00A3FF"/>
<path d="M51.125 173.2C51.125 165.9 51.225 158.6 51.025 151.3C50.925 147.8 52.325 146.7 55.625 146.6C65.125 146.3 65.125 146.2 65.125 155.8C65.125 168.7 65.025 181.7 65.225 194.6C65.325 198.4 63.925 199.5 60.325 199.5C49.225 199.4 51.225 199.8 51.025 190.6C51.125 184.9 51.125 179.1 51.125 173.2Z" fill="#00A3FF"/>
<path d="M137.025 124.8C134.825 125 132.825 125.2 130.325 125.5C130.325 128.8 130.225 131.9 130.325 135C130.525 138.2 129.325 139.3 126.025 139.5C111.125 140 111.125 140.1 111.225 125.7C111.325 112.3 117.325 106.2 130.625 106.1C132.625 106.1 134.625 106.1 137.025 106.1C137.025 112.2 137.025 118.3 137.025 124.8Z" fill="#00A3FF"/>
<path d="M156.825 84.2C144.825 84.2 144.825 84.2 144.825 72C144.825 61.7 143.725 62.7 154.225 62.6C157.225 62.6 160.225 62.8 163.225 62.5C167.725 62 169.125 64 168.825 68.3C168.525 71.8 168.525 75.3 168.825 78.8C169.125 82.9 167.625 84.7 163.425 84.2C161.225 84 159.025 84.2 156.825 84.2Z" fill="#00A3FF"/>
<path d="M113.525 144.6C118.525 144.6 122.925 144.6 127.825 144.6C127.825 154.8 127.825 164.7 127.725 174.6C127.725 175.6 126.925 177.3 126.325 177.4C125.325 177.6 123.825 177.1 122.925 176.3C116.725 171.2 111.725 165.7 113.425 156.6C114.125 152.9 113.525 148.8 113.525 144.6Z" fill="#00A3FF"/>
<path d="M176.425 106.2C180.325 106.2 183.925 106.2 187.725 106.2C187.725 112.4 187.725 118.3 187.725 124.7C184.025 124.7 180.425 124.7 176.425 124.7C176.425 118.6 176.425 112.7 176.425 106.2Z" fill="#00A3FF"/>
<path d="M173.825 79.8C173.825 75.2 173.825 71.7 173.825 67C177.825 67.6 182.125 67.2 184.725 69.1C186.225 70.1 186.225 76.7 184.725 77.7C182.025 79.6 177.825 79.2 173.825 79.8Z" fill="#00A3FF"/>
<path d="M139.725 66.7998C139.725 71.6998 139.725 75.0998 139.725 79.5998C135.825 79.0998 131.625 79.5998 128.925 77.7998C127.425 76.7998 127.225 70.2998 128.725 69.1998C131.225 67.3998 135.425 67.5998 139.725 66.7998Z" fill="#00A3FF"/>
<path d="M149.825 95.8004C149.825 93.7004 149.825 91.7004 149.825 89.4004C154.325 89.4004 158.725 89.4004 163.525 89.4004C163.525 91.3004 163.525 93.4004 163.525 95.8004C159.125 95.8004 154.825 95.8004 149.825 95.8004Z" fill="#00A3FF"/>
</svg>
