<svg width="256" height="256" viewBox="0 0 256 256" fill="none" xmlns="http://www.w3.org/2000/svg">
<path d="M73 110.067C73.1 79.467 92.3 56.667 118.6 51.867C144.5 47.167 170.4 61.967 179.8 86.767C189.2 111.667 179.9 140.067 156.9 153.167C148.1 158.167 144.5 164.567 143.9 174.267C143.1 187.267 131.3 194.167 120.6 188.467C115.7 185.867 113.1 181.567 112.4 176.067C112 172.967 111.8 169.767 111.3 166.667C110.4 161.067 107 157.667 102.2 154.967C83.1 144.267 73.7 127.767 73 110.067ZM128.2 65.367C105.6 65.467 87.2 83.767 87.2 106.367C87.1 128.667 105.9 147.267 128.3 147.267C150.4 147.267 169 128.667 169.1 106.467C169.2 84.067 150.6 65.267 128.2 65.367Z" fill="#00A3FF"/>
<path d="M106.2 171.267C110.5 188.567 116.7 195.067 127.9 195.167C139.1 195.267 145 189.367 150.1 171.567C158.1 174.067 166.3 176.167 174 179.367C177 180.667 180 184.567 180.7 187.767C181.7 192.167 177.7 195.367 173.9 196.567C164.7 199.367 155.5 202.367 146 203.567C128.9 205.767 111.7 205.167 94.9 201.067C90 199.867 85 197.967 80.6 195.467C73.4 191.267 73.2 183.967 80.7 180.367C88.7 176.667 97.4 174.367 106.2 171.267Z" fill="#00A3FF"/>
<path d="M128.3 70.3672C148.1 70.3672 164.1 86.4672 164.1 106.367C164.1 126.167 147.9 142.367 128.2 142.267C108.2 142.167 92.3001 126.367 92.2001 106.467C92.1001 86.3672 108.1 70.3672 128.3 70.3672ZM128 132.667C135.7 132.767 142.3 130.067 147.7 124.567C148.5 123.767 149.2 122.067 148.9 121.167C148.6 120.367 146.8 119.867 145.7 119.667C144.8 119.467 143.7 119.767 142.7 119.767C134.2 119.467 127.7 115.567 123.8 108.067C120 100.667 120.6 93.3672 124.9 86.1672C125.8 84.6672 126.2 82.7672 126.8 80.9672C124.8 80.8672 122.6 80.2672 120.7 80.7672C108 84.4672 100.3 96.8672 102.2 110.067C103.8 122.767 114.9 132.467 128 132.667ZM132.5 106.367C132.7 109.867 134.4 110.767 137.1 109.067C140.1 107.067 142.7 107.167 145.8 108.967C148.7 110.667 151 109.667 150.2 105.967C149.4 102.267 150.1 99.7672 153.1 97.2672C155.5 95.2672 155.1 92.7672 151.7 92.4672C147.9 92.1672 145.7 90.7672 144.2 87.2672C142.8 83.9672 140.3 84.0672 138.9 87.2672C137.4 90.8672 135 92.1672 131.3 92.4672C128.6 92.6672 127.2 94.6672 129.6 96.8672C132.5 99.6672 134.3 102.467 132.5 106.367Z" fill="#00A3FF"/>
<path d="M139.3 124.667C128.4 130.867 115.2 127.167 109.4 116.767C103.5 106.167 107.1 93.5671 118.4 87.2671C115.5 95.6671 115.5 103.567 119.8 111.067C123.9 118.367 130.4 122.567 139.3 124.667Z" fill="#00A3FF"/>
<path d="M144 101.967C142.1 101.967 140.4 101.967 138.8 101.967C138.3 100.367 137.8 98.6674 137.3 97.1674C138.6 96.1674 140 95.1674 141.5 94.0674C142.8 94.9674 144.3 96.0674 145.8 97.1674C145.3 98.4674 144.7 100.167 144 101.967Z" fill="#00A3FF"/>
</svg>
