<svg width="256" height="256" viewBox="0 0 256 256" fill="none" xmlns="http://www.w3.org/2000/svg">
<path d="M51.4 106.956C102.8 106.956 153.6 106.956 204.6 106.956C204.6 127.656 204.6 148.056 204.6 168.956C196.9 168.956 189.4 169.156 181.9 168.856C177.2 168.656 175.7 170.356 175.9 174.856C176.2 182.156 176 189.456 176 197.356C174 197.456 172.3 197.656 170.5 197.656C132.7 197.656 94.9 197.556 57.1 197.756C52.7 197.756 51 196.756 51 191.956C51.2 165.156 51.1 138.356 51.1 111.456C51.2 110.156 51.3 108.656 51.4 106.956ZM146.4 168.756C135.6 168.856 127.4 164.256 122.3 154.756C117.4 145.456 118.1 136.256 123.8 127.356C124.8 125.856 125.1 123.956 125.7 122.256C123.7 122.156 121.6 121.456 119.7 121.956C107.1 125.156 97.9 136.556 96.8 149.756C95.7 163.056 103.3 175.556 115.7 180.956C127.8 186.256 142.9 183.256 151 173.956C151.8 172.956 152.3 171.356 152.1 170.156C152 169.556 150 169.256 148.8 168.956C148.1 168.556 147.2 168.756 146.4 168.756ZM133.9 151.956C134 155.756 135.4 156.756 138.4 155.056C142.2 152.856 145.6 152.156 149.4 154.956C150.3 155.656 152.4 155.656 153.4 155.156C154.1 154.856 154.4 152.656 154 151.556C152.6 147.356 153.6 144.256 157.1 141.556C158.1 140.756 159.1 138.856 158.8 137.956C158.4 136.956 156.5 135.956 155.3 135.956C150.7 136.156 148.6 133.556 146.9 129.756C145.1 125.856 143 125.856 141.2 129.856C139.4 133.956 136.8 135.956 132.3 136.056C129.6 136.156 127.4 138.156 130 140.656C133.8 144.056 136.2 147.456 133.9 151.956Z" fill="#00A3FF"/>
<path d="M159.1 73.2561C159.1 78.1561 159.2 82.8561 159.1 87.6561C159 90.8561 160.3 92.1561 163.6 92.0561C168.8 91.9561 173.9 91.9561 179.1 92.0561C182.3 92.1561 183.6 90.6561 183.5 87.5561C183.4 82.9561 183.5 78.2561 183.5 72.9561C190.1 72.9561 196.3 72.8561 202.6 73.0561C203.4 73.0561 204.9 74.7561 204.9 75.6561C205.1 84.0561 205 92.5561 205 101.256C153.7 101.256 103 101.256 51.5 101.256C51.5 92.5561 51.4 83.8561 51.6 75.1561C51.6 74.3561 53.6 72.9561 54.8 72.9561C60.6 72.7561 66.4 72.8561 72.8 72.8561C72.8 77.8561 72.9 82.4561 72.8 87.0561C72.7 90.5561 73.9 92.2561 77.7 92.1561C82.5 91.9561 87.4 91.9561 92.2 92.1561C96.1 92.3561 97.2 90.5561 97 87.0561C96.8 82.5561 97 78.0561 97 73.2561C103.5 73.2561 109.5 73.2561 116.2 73.2561C116.2 78.0561 116.3 82.8561 116.2 87.6561C116.1 90.8561 117.3 92.2561 120.6 92.1561C125.8 92.0561 130.9 92.0561 136.1 92.1561C139.4 92.2561 140.5 90.7561 140.4 87.6561C140.3 83.0561 140.4 78.3561 140.4 73.3561C146.5 73.2561 152.5 73.2561 159.1 73.2561Z" fill="#00A3FF"/>
<path d="M91.5 87.0558C87 87.0558 82.7 87.0558 77.7 87.0558C77.7 78.3558 77.6 69.7558 77.8 61.1558C77.8 60.2558 79.6 58.8558 80.8 58.6558C90.8 56.9558 92 58.0558 92 68.0558C92 73.8558 92 79.7558 91.9 85.5558C91.9 85.9558 91.8 86.2558 91.5 87.0558Z" fill="#00A3FF"/>
<path d="M178.4 87.0558C173.3 87.0558 169.1 87.0558 164.2 87.0558C164.2 78.3558 164.1 69.9558 164.3 61.5558C164.3 60.5558 165.9 59.5558 166.9 58.6558C167.1 58.4558 167.5 58.6558 167.9 58.5558C178.3 57.5558 178.4 57.7558 178.4 68.1558C178.4 74.3558 178.4 80.4558 178.4 87.0558Z" fill="#00A3FF"/>
<path d="M135.1 87.0559C130.2 87.0559 126 87.0559 121 87.0559C121 78.2559 120.9 69.6559 121.1 61.1559C121.1 60.2559 122.6 58.8559 123.5 58.7559C126.5 58.4559 129.5 58.3559 132.4 58.8559C133.4 59.0559 134.9 60.9559 134.9 62.1559C135.2 70.2559 135.1 78.3559 135.1 87.0559Z" fill="#00A3FF"/>
<path d="M181.2 194.556C181.2 188.156 181.2 181.356 181.2 174.256C188.3 174.256 195.1 174.256 201.5 174.256C194.9 180.856 188.1 187.656 181.2 194.556Z" fill="#00A3FF"/>
<path d="M143 173.956C130.1 182.556 112.9 178.456 105.4 165.656C97.4 152.156 102.4 135.556 117.5 127.956C113.3 138.256 113 147.956 118.2 157.356C123.5 166.956 131.9 172.056 143 173.956Z" fill="#00A3FF"/>
<path d="M144 136.556C146 138.056 148.1 139.456 150.1 140.956C149.4 142.956 148.5 145.456 147.6 147.856C145.5 147.856 143 147.856 140.5 147.856C139.8 145.756 138.9 143.256 138.1 140.856C139.9 139.556 142 137.956 144 136.556Z" fill="#00A3FF"/>
</svg>
