<svg width="256" height="256" viewBox="0 0 256 256" fill="none" xmlns="http://www.w3.org/2000/svg">
<path d="M94.5185 96.8064C116.418 96.8064 138.318 96.8064 160.218 96.8064C162.918 105.706 161.718 110.106 153.018 115.106C147.418 118.306 146.218 122.206 146.418 128.006C146.818 138.106 146.518 148.306 146.518 158.706C144.018 158.706 141.918 158.706 139.418 158.706C139.418 146.906 139.318 135.506 139.518 124.006C139.518 120.906 138.718 119.006 136.118 116.906C133.518 114.906 132.018 111.606 129.918 108.906C129.218 108.006 128.218 107.206 127.318 106.406C126.618 107.206 125.818 107.906 125.118 108.706C122.918 111.506 120.718 114.306 118.718 117.206C117.318 119.206 115.518 121.406 115.418 123.606C115.018 133.406 115.218 143.306 115.218 153.106C115.218 154.906 115.218 156.706 115.218 158.706C112.718 158.706 110.818 158.706 108.218 158.706C108.218 150.406 108.218 142.306 108.218 134.206C108.218 130.706 108.018 127.206 108.218 123.706C108.418 120.506 107.618 118.206 104.418 117.006C103.318 116.606 102.418 115.806 101.418 115.206C94.3185 111.106 92.2185 104.906 94.5185 96.8064Z" fill="#00A3FF"/>
<path d="M127.318 175.806C116.318 175.806 105.318 175.706 94.4185 175.906C90.2185 176.006 88.8185 174.406 89.0185 170.306C89.2185 166.606 88.9185 163.506 94.3185 163.506C116.618 163.706 138.918 163.706 161.118 163.606C166.318 163.606 166.018 166.706 166.118 170.206C166.218 173.706 165.618 175.806 161.318 175.806C150.018 175.606 138.718 175.706 127.418 175.706C127.318 175.706 127.318 175.806 127.318 175.806Z" fill="#00A3FF"/>
<path d="M127.618 91.5063C116.418 91.5063 105.318 91.3063 94.1185 91.6063C88.9185 91.8063 89.2185 88.8063 89.1185 85.2063C89.0185 81.5063 89.7185 79.4062 94.2185 79.4062C116.418 79.6063 138.518 79.7063 160.718 79.5063C165.618 79.5063 166.018 81.7063 166.118 85.6063C166.218 89.7063 165.318 91.7063 160.618 91.6063C149.618 91.3063 138.618 91.5063 127.618 91.5063Z" fill="#00A3FF"/>
<path d="M158.918 182.206C155.618 184.606 152.518 187.306 149.018 189.306C145.118 191.606 140.718 192.906 137.018 195.306C134.318 197.106 132.218 200.006 129.918 202.306C129.118 203.006 128.318 204.006 127.418 204.206C126.818 204.306 126.018 203.106 125.318 202.506C122.418 199.806 119.818 196.606 116.518 194.406C112.318 191.706 107.518 190.106 103.218 187.606C100.618 186.106 98.5185 183.706 96.8185 180.706C117.318 180.706 137.818 180.706 158.318 180.706C158.418 181.306 158.618 181.806 158.918 182.206Z" fill="#00A3FF"/>
<path d="M158.218 74.5064C137.718 74.5064 117.218 74.5064 96.8185 74.5064C96.6185 74.2064 96.3185 73.9064 96.1185 73.5064C98.5185 71.4064 100.718 69.0064 103.418 67.4064C108.018 64.7064 113.118 62.9064 117.618 60.1064C120.518 58.3064 122.718 55.3064 125.218 52.9064C126.018 52.2064 126.818 51.2064 127.718 51.0064C128.318 50.9064 129.618 52.0064 129.718 52.7064C130.718 57.3064 134.518 58.8064 138.018 60.6064C142.618 62.9064 147.318 65.0064 151.718 67.6064C154.318 69.1064 156.418 71.4064 158.718 73.4064C158.618 73.8064 158.418 74.2064 158.218 74.5064Z" fill="#00A3FF"/>
<path d="M127.418 116.506C134.718 119.606 134.918 125.406 134.718 131.906C134.418 140.706 134.618 149.506 134.618 158.706C129.818 158.706 125.418 158.706 120.318 158.706C120.318 151.106 120.318 143.506 120.318 135.906C120.318 134.206 120.518 132.506 120.318 130.906C119.318 124.306 121.218 119.206 127.418 116.506Z" fill="#00A3FF"/>
<path d="M160.718 158.706C157.618 158.706 154.818 158.706 151.518 158.706C151.518 146.806 151.018 135.206 151.918 123.706C152.118 120.906 157.118 118.406 160.718 115.006C160.718 130.306 160.718 144.306 160.718 158.706Z" fill="#00A3FF"/>
<path d="M94.2185 115.806C97.1185 117.706 99.6185 119.206 101.918 121.006C102.818 121.706 103.418 123.206 103.418 124.306C103.518 135.606 103.518 146.906 103.518 158.606C100.318 158.606 97.5185 158.606 94.2185 158.606C94.2185 144.506 94.2185 130.406 94.2185 115.806Z" fill="#00A3FF"/>
</svg>
