<svg width="18" height="14" viewBox="0 0 18 14" fill="none" xmlns="http://www.w3.org/2000/svg">
<path d="M17.3142 8.9025L15.6475 1.4025C15.6061 1.21745 15.5029 1.05202 15.3549 0.93343C15.2069 0.814838 15.023 0.750147 14.8334 0.75H12.3334V2.41667H14.165L14.9659 6.02167C14.5265 5.84393 14.0573 5.75172 13.5834 5.75C11.9559 5.75 10.5809 6.79833 10.0634 8.25H7.93585C7.41835 6.79833 6.04335 5.75 4.41585 5.75C3.92669 5.75 3.46169 5.85083 3.03335 6.02167L3.83502 2.41667H5.66669V0.75H3.16669C2.97712 0.750033 2.79322 0.814698 2.64536 0.933325C2.49749 1.05195 2.39449 1.21745 2.35335 1.4025L0.686687 8.9025L0.725854 8.91167C0.690853 9.10594 0.671071 9.30265 0.666687 9.5C0.666687 11.5675 2.34919 13.25 4.41669 13.25C6.34169 13.25 7.91419 11.7867 8.12419 9.91667H9.87585C10.0859 11.7867 11.6584 13.25 13.5834 13.25C15.6509 13.25 17.3334 11.5675 17.3334 9.5C17.3334 9.29833 17.305 9.10417 17.2742 8.91167L17.3142 8.9025ZM4.41669 11.5833C3.26835 11.5833 2.33335 10.6483 2.33335 9.5C2.33335 8.35167 3.26835 7.41667 4.41669 7.41667C5.56502 7.41667 6.50002 8.35167 6.50002 9.5C6.50002 10.6483 5.56502 11.5833 4.41669 11.5833ZM13.5834 11.5833C12.4342 11.5833 11.5 10.6483 11.5 9.5C11.5 8.35167 12.4342 7.41667 13.5834 7.41667C14.7325 7.41667 15.6667 8.35167 15.6667 9.5C15.6667 10.6483 14.7325 11.5833 13.5834 11.5833Z" fill="#ACACAC"/>
</svg>
