<svg width="256" height="256" viewBox="0 0 256 256" fill="none" xmlns="http://www.w3.org/2000/svg">
<path d="M127.805 51C129.205 51.6 130.505 52.1 131.605 52.7C152.105 63 172.705 73.2 193.205 83.5C194.705 84.3 195.905 85.7 197.205 86.8C196.005 88 194.905 89.5 193.405 90.3C172.905 100.7 152.305 110.9 131.905 121.2C129.005 122.7 126.505 122.8 123.505 121.3C103.105 111 82.5049 100.8 62.0049 90.4C60.5049 89.7 59.5049 88.1 58.3049 86.9C59.5049 85.8 60.5049 84.4 61.8049 83.8C82.4049 73.4 103.105 63 123.805 52.7C125.105 52.1 126.505 51.6 127.805 51Z" fill="#00A3FF"/>
<path d="M58.1049 121.7C70.6049 127.9 82.1049 133.7 93.7049 139.4C103.205 144.1 112.805 148.8 122.205 153.7C123.505 154.4 125.205 156.2 125.205 157.5C125.405 168.3 125.305 179 125.305 190.7C119.205 187.7 113.805 184.9 108.305 182.2C92.8049 174.5 77.3049 166.8 61.9049 159C60.3049 158.2 58.2049 156.2 58.1049 154.6C57.9049 144.1 58.1049 133.5 58.1049 121.7Z" fill="#00A3FF"/>
<path d="M197.305 122.4C197.305 133.1 197.405 143.6 197.205 154.1C197.205 155.5 196.005 157.6 194.805 158.3C189.805 161.1 184.505 163.6 178.305 166.6C178.305 160.9 178.305 155.9 178.305 150.8C178.205 145.2 177.105 144.5 172.205 146.9C165.805 150.1 159.405 153.4 153.005 156.4C150.405 157.6 149.005 159.2 149.405 162.1C149.505 162.6 149.405 163.1 149.405 163.6C149.205 169.4 151.305 176.8 148.405 180.5C144.805 185.3 137.205 187 130.205 190.7C130.205 186 130.205 182.1 130.205 178.3C130.205 171.6 130.105 165 130.305 158.3C130.405 156.8 131.405 154.6 132.605 154C153.605 143.3 174.805 132.8 195.905 122.2C196.005 122.3 196.405 122.4 197.305 122.4Z" fill="#00A3FF"/>
<path d="M196.905 94.5C197.805 103.1 197.805 103.1 190.905 106.6C172.305 115.9 153.805 125.2 135.205 134.4C133.805 135.1 132.305 135.7 130.705 136.4C129.305 128 129.305 128 136.305 124.6C155.005 115.2 173.705 105.9 192.505 96.5C193.905 95.8 195.405 95.2 196.905 94.5Z" fill="#00A3FF"/>
<path d="M58.605 94.2998C77.4049 103.7 95.6049 112.8 113.905 121.9C115.505 122.7 117.205 123.5 118.805 124.4C125.805 127.8 125.805 127.8 124.905 136.7C121.905 135.2 119.205 133.9 116.405 132.5C99.0049 123.8 81.6049 115.1 64.2049 106.4C57.4049 103 57.405 103 58.605 94.2998Z" fill="#00A3FF"/>
<path d="M130.705 149.3C129.205 144.3 130.705 141.8 134.905 139.8C154.205 130.5 173.305 120.8 192.405 111.2C193.805 110.5 195.305 109.8 196.805 109.1C198.405 114.3 196.505 116.8 192.005 119C172.705 128.3 153.605 138 134.505 147.6C133.305 148.2 132.105 148.7 130.705 149.3Z" fill="#00A3FF"/>
<path d="M124.805 149.5C116.605 145.5 108.505 141.4 100.405 137.4C87.8049 131.1 75.5049 124.6 62.8049 118.7C58.4049 116.6 57.2049 114.1 58.7049 109.2C65.1049 112.4 71.2049 115.4 77.4049 118.5C91.8049 125.6 106.005 133 120.405 139.8C124.805 141.9 126.405 144.4 124.805 149.5Z" fill="#00A3FF"/>
<path d="M154.305 178.6C154.305 173.1 154.205 168.6 154.405 164.1C154.505 162.9 155.305 161.1 156.305 160.5C161.605 157.6 167.205 155 173.405 151.8C173.405 157.3 173.505 162.1 173.305 166.8C173.305 167.9 172.405 169.4 171.505 169.9C166.105 172.9 160.605 175.5 154.305 178.6Z" fill="#00A3FF"/>
<path d="M139.705 191.9C140.605 200.5 140.605 200.5 130.905 204C129.005 196.5 129.405 195.9 139.705 191.9Z" fill="#00A3FF"/>
<path d="M187.705 175.5C187.105 166.8 187.605 166.2 197.005 163.5C197.905 171.8 197.505 172.3 187.705 175.5Z" fill="#00A3FF"/>
<path d="M145.405 196.7C144.305 188.2 144.605 187.9 153.805 185C155.005 193.1 154.805 193.3 145.405 196.7Z" fill="#00A3FF"/>
<path d="M125.105 204.2C115.005 200.8 114.705 200.5 115.705 192.3C125.005 194.6 125.605 195.5 125.105 204.2Z" fill="#00A3FF"/>
<path d="M67.705 175.4C57.805 172.2 57.305 171.5 58.605 163.7C67.705 166 68.505 167 67.705 175.4Z" fill="#00A3FF"/>
<path d="M73.605 171C82.605 174 82.605 174 81.805 182C73.605 181.1 71.905 178.8 73.605 171Z" fill="#00A3FF"/>
<path d="M182.105 170.8C182.705 179.4 182.705 179.4 174.005 182.4C172.305 174.9 172.805 174.1 182.105 170.8Z" fill="#00A3FF"/>
<path d="M87.4049 177.6C97.8049 182.3 96.3049 180.8 95.8049 189C87.9049 188 86.5049 186.2 87.4049 177.6Z" fill="#00A3FF"/>
<path d="M109.905 196.5C100.905 193.7 100.505 193.1 101.605 185.2C110.405 187.3 111.105 188.3 109.905 196.5Z" fill="#00A3FF"/>
<path d="M167.905 178C168.905 186.3 168.405 187 159.805 189.2C158.505 181.4 159.105 180.6 167.905 178Z" fill="#00A3FF"/>
</svg>
