<svg width="256" height="256" viewBox="0 0 256 256" fill="none" xmlns="http://www.w3.org/2000/svg">
<path d="M142.72 204.728C97.7204 204.628 65.0204 177.928 57.5204 140.728C50.1204 104.428 70.3204 67.328 105.32 52.928C106.12 52.628 106.82 52.128 107.62 52.028C109.12 51.928 110.72 52.128 112.22 52.128C111.82 53.628 111.82 55.328 111.02 56.528C103.42 66.728 98.5204 78.028 96.7204 90.728C91.0204 131.328 120.22 169.428 160.92 174.628C172.22 176.128 183.12 175.228 194.02 172.228C195.72 171.728 197.72 172.228 199.62 172.228C198.82 174.028 198.42 176.228 197.22 177.728C180.92 195.728 160.42 204.528 142.72 204.728Z" fill="#00A3FF"/>
<path d="M148.107 149.728C148.252 148.563 148.252 148.126 148.397 147.689C152.019 137.786 149.121 130.068 140.717 123.951C139.413 122.932 137.964 120.165 138.399 119.291C139.268 117.834 141.732 116.232 143.47 116.232C153.613 116.232 160.278 112.155 163.031 101.96C163.466 100.213 165.784 98.0283 167.378 98.0283C168.827 98.0283 171.145 100.358 171.58 102.106C174.478 112.155 181.143 116.378 191.285 116.378C193.024 116.378 195.342 117.98 196.212 119.436C196.791 120.31 194.908 122.64 194.038 124.242C193.893 124.679 193.459 124.971 193.024 125.262C185.2 130.505 183.316 137.641 186.069 146.524C186.649 148.563 185.779 151.039 185.634 153.369C183.171 152.932 179.984 153.369 178.245 151.913C170.565 145.796 163.466 146.961 156.076 152.204C152.744 154.097 148.687 155.99 148.107 149.728Z" fill="#00A3FF"/>
</svg>
