<svg width="20" height="18" viewBox="0 0 20 18" fill="none" xmlns="http://www.w3.org/2000/svg">
<path d="M17.5 3.99996H11.175L13.9167 1.25829L13.3333 0.666626L10 3.99996L6.66667 0.666626L6.075 1.25829L8.825 3.99996H2.5C2.05797 3.99996 1.63405 4.17555 1.32149 4.48812C1.00893 4.80068 0.833332 5.2246 0.833332 5.66663V15.6666C0.833332 16.5833 1.58333 17.3333 2.5 17.3333H17.5C18.4167 17.3333 19.1667 16.5833 19.1667 15.6666V5.66663C19.1667 5.2246 18.9911 4.80068 18.6785 4.48812C18.3659 4.17555 17.942 3.99996 17.5 3.99996ZM17.5 15.6666H2.5V5.66663H17.5V15.6666ZM7.5 7.33329V14L13.3333 10.6666L7.5 7.33329Z" fill="white"/>
</svg>
