<svg width="256" height="256" viewBox="0 0 256 256" fill="none" xmlns="http://www.w3.org/2000/svg">
<path d="M197.557 83.2C197.557 91 197.757 98.9 197.457 106.7C197.357 108.6 196.057 111.2 194.557 112.1C173.357 124 152.057 135.7 130.657 147.2C129.157 148 126.457 147.8 124.857 147C103.557 135.3 82.3568 123.4 61.2568 111.3C59.7568 110.4 58.2568 108.1 58.2568 106.4C58.0568 90.7 58.0567 75.1 58.1567 59.4C58.1567 54.7 59.4567 54 63.5567 56.2C69.5567 59.5 75.6568 62.5999 81.3568 66.2999C82.9568 67.2999 84.3568 69.8 84.3568 71.6C84.6568 82.9 84.5567 94.3 84.4567 105.6C84.4567 108.6 85.1567 110.5 87.9567 112C100.157 118.5 112.257 125.2 124.257 132.1C126.957 133.7 128.957 133.4 131.557 131.9C143.457 125.2 155.357 118.5 167.357 112C170.057 110.5 171.157 108.8 171.057 105.7C170.857 94.4 171.157 83 170.957 71.7C170.957 68.8 171.857 67.2 174.357 65.9C180.257 62.8 186.057 59.4999 191.857 56.2999C196.257 53.8999 197.357 54.6 197.457 59.7C197.557 67.6 197.557 75.4 197.557 83.2Z" fill="#00A3FF"/>
<path d="M58.0567 115.8C68.0567 121.3 77.3567 126.4 86.5567 131.5C117.957 149 149.357 166.5 180.857 183.8C184.457 185.8 185.957 188 185.557 192C185.257 194.5 185.557 197 185.557 199.5C185.457 204.8 184.357 205.6 179.757 203C165.657 195.2 151.557 187.4 137.457 179.5C112.857 165.9 88.3567 152.1 63.6567 138.7C59.3567 136.4 57.6567 133.7 58.0567 128.9C58.3567 124.9 58.0567 120.8 58.0567 115.8ZM131.857 164.5C130.057 163.1 128.957 161.7 127.857 161.7C126.857 161.8 125.857 163.3 124.857 164.2C125.757 165.2 126.557 166.8 127.657 167C128.757 167.2 129.957 165.8 131.857 164.5Z" fill="#00A3FF"/>
<path d="M130.257 127.1C130.257 108.5 130.257 91 130.357 73.5C130.357 72.3 131.257 70.5 132.257 69.9C143.157 63.6 154.257 57.6 166.057 51C166.057 55.6 166.057 59.4 166.057 63.1C166.057 76.4 166.157 89.7 165.957 103.1C165.957 104.8 165.257 107.4 164.057 108.1C153.157 114.5 142.157 120.5 130.257 127.1ZM137.157 80.2C137.857 80.1 138.257 80.1 138.457 79.9C145.757 75.9 153.057 71.9 160.257 67.7C160.857 67.3 161.257 65.4 160.857 64.7C160.457 64 158.657 63.5 157.957 63.8C150.657 67.7 143.357 71.8 136.157 75.9C135.557 76.3 135.057 77.7 135.257 78.4C135.457 79.2 136.657 79.7 137.157 80.2ZM161.657 90.3C161.557 89.7 161.457 89.1 161.457 88.5C159.957 88.4 158.157 87.7 156.957 88.3C150.457 91.6 144.057 95.2 137.757 98.9C136.657 99.6 136.157 101.3 135.357 102.6C136.957 102.8 138.857 103.6 140.057 103C146.457 99.8 152.657 96.2 158.857 92.6C159.857 92.1 160.657 91.1 161.657 90.3ZM161.657 102.2C161.557 101.6 161.457 101 161.357 100.5C159.857 100.4 158.057 99.8 156.857 100.4C150.257 103.8 143.757 107.5 137.357 111.3C136.357 111.9 136.057 113.7 135.457 115C136.957 115.1 138.657 115.8 139.757 115.2C146.257 111.9 152.557 108.3 158.857 104.7C159.957 104.1 160.757 103.1 161.657 102.2ZM137.157 92.3C137.957 92.1 138.457 92 138.857 91.8C145.957 87.9 153.057 84 160.057 79.9C160.757 79.5 160.957 77.6 160.757 76.6C160.657 76.1 158.557 75.5 157.857 75.9C150.557 79.8 143.357 83.8 136.257 88C135.657 88.4 135.157 89.8 135.357 90.5C135.457 91.2 136.557 91.7 137.157 92.3Z" fill="#00A3FF"/>
<path d="M89.4567 51C101.257 57.5 111.957 63.5 122.657 69.6C123.757 70.2 124.657 71.7 125.157 72.9C125.557 73.9 125.257 75.2 125.257 76.4C125.257 93 125.257 109.6 125.257 127.1C113.357 120.5 102.257 114.4 91.1567 108.1C90.3567 107.6 89.5567 106.3 89.5567 105.3C89.4567 87.5 89.4567 69.7 89.4567 51ZM121.757 114.7C119.957 112.8 119.457 111.9 118.657 111.5C111.857 107.6 105.057 103.8 98.0567 100.2C97.2567 99.8 95.7567 100.5 94.5567 100.7C95.0567 101.9 95.0567 103.8 95.9567 104.3C102.657 108.3 109.557 112.1 116.457 115.7C117.557 116.1 119.357 115.2 121.757 114.7ZM121.357 78.4C120.157 76.9 119.757 76.1 119.157 75.7C112.057 71.7 104.957 67.7 97.7567 63.9C97.0567 63.5 95.7567 64.3 94.6567 64.6C94.9567 65.7 94.8567 67.5 95.6567 67.9C102.657 72 109.857 76 117.057 79.7C117.857 80.2 119.557 79 121.357 78.4ZM121.557 102.6C120.057 100.8 119.657 100 119.057 99.6C112.157 95.7 105.157 91.7 98.0567 88C97.2567 87.6 95.7567 88.4 94.5567 88.6C95.0567 89.8 95.1567 91.7 96.0567 92.2C102.757 96.2 109.657 100 116.557 103.5C117.657 104.1 119.357 103.1 121.557 102.6ZM96.6567 75.3C95.9567 75.9 94.4567 76.7 94.5567 77C94.8567 78.3 95.4567 79.9 96.4567 80.5C102.757 84.2 109.157 87.8 115.657 91.1C116.857 91.7 118.557 91.1 120.057 91.1C119.357 89.7 118.957 87.7 117.757 87C111.657 83.3 105.257 80 99.0567 76.5C98.3567 76.1 97.5567 75.8 96.6567 75.3Z" fill="#00A3FF"/>
<path d="M197.457 115.7C197.457 122 197.757 127.2 197.357 132.3C197.257 134 195.757 136.3 194.157 137.2C180.557 145 166.957 152.5 153.157 160C151.857 160.7 149.657 160.7 148.257 160.1C143.357 157.7 138.657 154.9 132.857 151.6C154.557 139.6 175.557 127.9 197.457 115.7Z" fill="#00A3FF"/>
<path d="M122.757 177.1C106.357 186.2 90.7567 194.9 75.1567 203.5C71.8567 205.4 70.1567 204.4 70.0567 200.6C70.0567 200.4 70.0567 200.3 70.0567 200.1C69.4567 186.8 69.4567 186.8 81.2567 180.3C88.0567 176.5 94.8567 172.5 101.857 169C103.557 168.1 106.357 168.2 108.157 169C112.857 171.2 117.357 174.1 122.757 177.1Z" fill="#00A3FF"/>
</svg>
