<svg width="256" height="256" viewBox="0 0 256 256" fill="none" xmlns="http://www.w3.org/2000/svg">
<path d="M78.4752 186.256C83.2752 180.856 88.1752 175.456 93.4752 169.656C93.9752 171.156 94.2752 172.156 94.5752 173.256C95.8752 178.156 100.175 181.356 104.875 180.856C109.575 180.356 113.275 176.556 113.475 171.256C113.775 164.556 113.375 157.956 113.775 151.256C113.875 148.956 114.875 146.356 116.275 144.656C121.075 138.856 126.175 133.456 131.075 128.056C134.475 131.556 137.975 134.956 141.075 138.456C141.975 139.556 142.375 141.456 142.475 142.956C142.575 151.956 142.475 160.956 142.575 169.956C142.575 176.556 146.575 180.956 152.275 180.856C157.675 180.756 161.775 176.356 161.775 170.156C161.875 160.956 161.775 151.856 161.875 142.656C161.875 141.156 162.275 139.256 163.275 138.256C176.275 125.456 179.875 107.656 172.575 91.2556C171.775 89.4556 170.775 87.6556 169.675 85.4556C173.275 81.3556 176.975 77.1556 181.175 72.4556C198.975 90.6556 207.375 112.056 204.075 136.956C199.875 168.956 181.775 190.556 151.275 201.056C126.375 209.556 94.3752 202.856 78.4752 186.256Z" fill="#00A3FF"/>
<path d="M74.7752 183.156C44.1752 155.556 42.9752 106.056 71.9752 75.1556C101.475 43.6556 149.075 44.2556 177.275 69.4556C173.775 73.3556 170.175 77.3556 166.475 81.4556C165.175 80.4556 164.075 79.5556 162.875 78.6556C155.175 73.2556 146.475 73.4556 139.575 79.9556C128.275 90.3556 126.375 103.756 128.975 118.056C129.575 121.256 129.175 123.256 126.875 125.556C122.675 129.856 118.675 134.556 114.075 139.556C113.075 133.056 112.775 127.856 119.075 124.756C122.175 123.256 123.175 120.556 123.075 116.956C122.875 105.256 123.075 93.6556 122.875 81.9556C122.875 80.4556 121.575 79.0556 120.875 77.5556C119.975 79.0556 118.375 80.4556 118.275 81.9556C117.975 88.2556 118.175 94.5556 118.175 101.056C114.175 101.056 110.675 101.056 106.375 101.056C106.375 95.8556 106.375 90.6556 106.375 85.3556C106.375 83.8556 106.675 82.2556 106.275 80.8556C105.875 79.5556 104.575 78.5556 103.675 77.4556C102.975 78.5556 101.675 79.7556 101.675 80.8556C101.475 87.3556 101.575 93.8556 101.575 100.756C97.6752 100.756 93.9752 100.756 89.4752 100.756C89.4752 95.1556 89.4752 89.5556 89.4752 83.9556C89.4752 82.7556 89.7752 81.4556 89.3752 80.4556C88.8752 79.2556 87.7752 78.3556 86.9752 77.3556C86.2752 78.2556 84.8752 79.2556 84.8752 80.1556C84.7752 93.3556 84.5752 106.456 84.9752 119.656C85.0752 121.756 88.1752 124.056 90.2752 125.656C93.0752 127.656 94.4752 129.856 94.2752 133.556C94.0752 140.356 93.9752 147.256 94.3752 154.056C94.7752 159.556 92.9752 163.556 89.1752 167.256C84.1752 172.456 79.6752 177.756 74.7752 183.156Z" fill="#00A3FF"/>
<path d="M165.475 89.2554C174.075 99.8554 172.775 128.955 158.875 135.155C157.675 135.655 156.775 138.355 156.775 140.155C156.575 149.955 156.675 159.755 156.675 169.555C156.675 172.955 155.975 175.755 151.975 175.755C147.975 175.755 147.175 172.755 147.175 169.555C147.075 160.055 147.075 150.555 147.175 141.155C147.175 137.955 146.775 135.355 143.375 133.955C141.875 133.355 140.675 132.055 139.575 130.755C134.575 125.155 134.675 123.855 139.675 118.355C147.175 110.155 154.675 101.855 162.075 93.5554C163.275 92.2554 164.275 90.7554 165.475 89.2554Z" fill="#00A3FF"/>
<path d="M89.9752 106.656C99.2752 106.656 108.375 106.656 117.775 106.656C118.475 113.856 119.675 120.656 111.475 124.756C109.975 125.556 109.075 128.356 108.675 130.456C108.175 133.056 108.175 135.856 108.675 138.356C110.275 146.556 104.075 150.256 98.9752 156.356C98.9752 146.856 99.1752 138.956 98.8752 131.056C98.7752 128.856 97.7752 126.156 96.1752 124.756C88.6752 118.156 88.2752 117.756 89.9752 106.656Z" fill="#00A3FF"/>
<path d="M133.575 117.956C131.475 105.656 132.575 94.9556 140.175 85.8556C146.675 77.9556 155.775 77.9556 162.775 85.5556C153.275 96.0556 143.775 106.656 133.575 117.956Z" fill="#00A3FF"/>
<path d="M108.675 153.055C108.675 159.655 108.775 165.255 108.675 170.755C108.675 173.855 106.875 176.255 103.775 175.555C101.975 175.155 99.6752 172.855 99.1752 170.955C96.9752 162.855 103.275 158.755 108.675 153.055Z" fill="#00A3FF"/>
</svg>
