<svg width="12" height="12" viewBox="0 0 12 12" fill="none" xmlns="http://www.w3.org/2000/svg">
<path d="M8.33332 7.33338H7.80666L7.61999 7.15338C8.41999 6.22005 8.83332 4.94672 8.60666 3.59338C8.29332 1.74005 6.74666 0.260051 4.87999 0.0333842C2.05999 -0.313282 -0.313344 2.06005 0.0333232 4.88005C0.25999 6.74672 1.73999 8.29338 3.59332 8.60672C4.94666 8.83338 6.21999 8.42005 7.15332 7.62005L7.33332 7.80672V8.33338L10.1667 11.1667C10.44 11.4401 10.8867 11.4401 11.16 11.1667C11.4333 10.8934 11.4333 10.4467 11.16 10.1734L8.33332 7.33338ZM4.33332 7.33338C2.67332 7.33338 1.33332 5.99338 1.33332 4.33338C1.33332 2.67338 2.67332 1.33338 4.33332 1.33338C5.99332 1.33338 7.33332 2.67338 7.33332 4.33338C7.33332 5.99338 5.99332 7.33338 4.33332 7.33338Z" fill="#5B5B5B"/>
</svg>
