<svg width="256" height="256" viewBox="0 0 256 256" fill="none" xmlns="http://www.w3.org/2000/svg">
<path d="M85.1 156.7C114.2 156.7 142.4 156.7 171.3 156.7C171.3 163.4 171.3 169.8 171.3 176.2C171.3 184 171.2 191.9 171.3 199.7C171.4 203.1 170.4 204.4 166.8 204.4C141 204.3 115.2 204.3 89.3 204.3C86.9 204.3 85 204.1 85 201C85.1 186.4 85.1 171.8 85.1 156.7ZM128.3 197.3C135.5 197.3 142.6 197.3 149.8 197.3C152.5 197.3 161.8 188.4 161.9 185.8C162 183.8 161.9 181.8 161.9 179.8C161.9 175.6 163.2 170.9 156.8 169.8C156.1 169.7 155.3 168.4 155.1 167.5C154.5 163.7 151.9 163.5 148.8 163.5C135.8 163.6 122.8 163.5 109.8 163.5C105.9 163.5 101.6 162.7 100.7 168.5C100.6 169.3 99.1 170.3 98.1 170.5C94.8 171.1 94.3 173.1 94.4 175.9C94.5 178.7 94.5 181.6 94.4 184.4C94.3 187.5 94.6 189.9 98.5 190.6C99.7 190.8 100.4 193 101.6 194.1C103 195.3 104.6 197.1 106.2 197.2C113.6 197.5 121 197.3 128.3 197.3Z" fill="#00A3FF"/>
<path d="M154.5 103.7C154.5 118.1 142.9 129.9 128.6 130C113.8 130.1 101.7 118.2 101.9 103.5C102 88.8 113.7 77.2 128.3 77.3C143 77.3 154.5 88.9 154.5 103.7ZM128 86.5C126.5 88.4 125.3 90.3 123.7 91.8C119 96.4 119.5 101.4 125.2 104.9C126.5 105.7 128 106.1 129.1 107.1C129.9 107.9 130.2 109.2 130.7 110.3C129.4 110.7 128.1 111.3 126.8 111.3C125.9 111.3 125 110.3 124.1 110.2C123.2 110.1 122 110.5 121.6 111.1C121.2 111.7 121.3 113.1 121.8 113.8C123.4 116 124.8 118.6 127 119.8C131.3 122.2 130.5 116.7 132.5 115.3C137.6 111.5 136.9 106.2 131.6 102.7C130.1 101.7 128.3 101.1 126.9 100C126.2 99.4 126.1 98.1 125.7 97.1C126.8 96.7 127.9 96 129.1 95.9C130 95.9 130.9 96.9 131.8 97C132.8 97.1 133.9 96.6 134.9 96.4C134.6 95.3 134.6 94 134 93C132.9 91.3 131.6 89.8 130.2 88.2C129.7 87.5 128.9 87.1 128 86.5Z" fill="#00A3FF"/>
<path d="M86.2 151.3C89.1 145.4 91.7 139.8 94.7 134.5C95.3 133.4 97.4 132.6 98.8 132.5C118.5 132.4 138.1 132.4 157.8 132.5C159.2 132.5 161.3 133.4 161.9 134.5C164.9 139.8 167.5 145.3 170.5 151.3C142.1 151.3 114.5 151.3 86.2 151.3ZM128.5 139.5C123.4 139.5 118.2 139.3 113.1 139.6C111.8 139.7 110.5 141.3 109.2 142.2C110.5 142.9 111.8 144.3 113.1 144.3C123.2 144.5 133.3 144.5 143.4 144.3C144.7 144.3 146 142.9 147.3 142.2C146 141.3 144.7 139.7 143.4 139.6C138.4 139.4 133.5 139.6 128.5 139.5Z" fill="#00A3FF"/>
<path d="M130.5 63.1C130.5 65.9 130.7 68.8 130.4 71.5C130.3 72.5 129.1 73.4 128.4 74.3C127.6 73.4 126.2 72.6 126.1 71.7C125.9 65.7 125.9 59.8 126.1 53.8C126.1 52.8 127.5 51.9 128.2 51C129 52 130.3 53 130.5 54.1C130.7 57.1 130.5 60.1 130.5 63.1Z" fill="#00A3FF"/>
<path d="M140.2 67.9C140.2 68.2 140.3 68.6 140.2 68.9C139.4 70.8 138.6 72.7 137.9 74.6C137.1 72.7 136.1 70.9 135.6 68.9C135.2 67.2 135.2 65.2 135.6 63.5C135.9 62.4 137.2 61.5 138 60.5C138.7 61.5 139.8 62.4 140 63.4C140.5 64.8 140.2 66.4 140.2 67.9Z" fill="#00A3FF"/>
<path d="M115.1 67C116.5 64.6 117.6 62.5 118.7 60.5C119.4 62.6 120.8 64.8 120.8 66.9C120.7 69.5 123 73.4 118.4 74.1C117.7 74.2 116.4 69.8 115.1 67Z" fill="#00A3FF"/>
<path d="M128.1 192.4C124.3 192.4 120.4 192.4 116.6 192.4C106.7 192.4 106.4 192.6 100.6 185.7C99 183.8 99.6 180.1 99.5 177.2C99.5 175.4 107.8 168.6 109.6 168.5C121.9 168.5 134.3 168.4 146.6 168.6C148.2 168.6 149.8 170.2 151.2 171.2C152.3 172 153 173.2 154 174C158.2 177.2 157.3 183 154.2 187.1C149.5 193.5 143.5 192.3 137.4 192.3C134.5 192.4 131.3 192.4 128.1 192.4Z" fill="#00A3FF"/>
</svg>
